<?xml version="1.0" encoding="utf-8" standalone="no"?>
<!DOCTYPE svg PUBLIC "-//W3C//DTD SVG 1.1//EN"
  "http://www.w3.org/Graphics/SVG/1.1/DTD/svg11.dtd">
<!-- Created with matplotlib (https://matplotlib.org/) -->
<svg height="432pt" version="1.1" viewBox="0 0 648 432" width="648pt" xmlns="http://www.w3.org/2000/svg" xmlns:xlink="http://www.w3.org/1999/xlink">
 <defs>
  <style type="text/css">
*{stroke-linecap:butt;stroke-linejoin:round;}
  </style>
 </defs>
 <g id="figure_1">
  <g id="patch_1">
   <path d="M 0 432 
L 648 432 
L 648 0 
L 0 0 
z
" style="fill:#ffffff;"/>
  </g>
  <g id="axes_1">
   <g id="patch_2">
    <path d="M 44.55 390.2 
L 533.2 390.2 
L 533.2 10.8 
L 44.55 10.8 
z
" style="fill:#ffffff;"/>
   </g>
   <g id="matplotlib.axis_1">
    <g id="xtick_1">
     <g id="line2d_1">
      <defs>
       <path d="M 0 0 
L 0 3.5 
" id="mb1cace33a6" style="stroke:#000000;stroke-width:0.8;"/>
      </defs>
      <g>
       <use style="stroke:#000000;stroke-width:0.8;" x="66.761364" xlink:href="#mb1cace33a6" y="390.2"/>
      </g>
     </g>
     <g id="text_1">
      <!-- 0 -->
      <defs>
       <path d="M 31.78125 66.40625 
Q 24.171875 66.40625 20.328125 58.90625 
Q 16.5 51.421875 16.5 36.375 
Q 16.5 21.390625 20.328125 13.890625 
Q 24.171875 6.390625 31.78125 6.390625 
Q 39.453125 6.390625 43.28125 13.890625 
Q 47.125 21.390625 47.125 36.375 
Q 47.125 51.421875 43.28125 58.90625 
Q 39.453125 66.40625 31.78125 66.40625 
z
M 31.78125 74.21875 
Q 44.046875 74.21875 50.515625 64.515625 
Q 56.984375 54.828125 56.984375 36.375 
Q 56.984375 17.96875 50.515625 8.265625 
Q 44.046875 -1.421875 31.78125 -1.421875 
Q 19.53125 -1.421875 13.0625 8.265625 
Q 6.59375 17.96875 6.59375 36.375 
Q 6.59375 54.828125 13.0625 64.515625 
Q 19.53125 74.21875 31.78125 74.21875 
z
" id="DejaVuSans-48"/>
      </defs>
      <g transform="translate(63.580114 404.798437)scale(0.1 -0.1)">
       <use xlink:href="#DejaVuSans-48"/>
      </g>
     </g>
    </g>
    <g id="xtick_2">
     <g id="line2d_2">
      <g>
       <use style="stroke:#000000;stroke-width:0.8;" x="131.142128" xlink:href="#mb1cace33a6" y="390.2"/>
      </g>
     </g>
     <g id="text_2">
      <!-- 10 -->
      <defs>
       <path d="M 12.40625 8.296875 
L 28.515625 8.296875 
L 28.515625 63.921875 
L 10.984375 60.40625 
L 10.984375 69.390625 
L 28.421875 72.90625 
L 38.28125 72.90625 
L 38.28125 8.296875 
L 54.390625 8.296875 
L 54.390625 0 
L 12.40625 0 
z
" id="DejaVuSans-49"/>
      </defs>
      <g transform="translate(124.779628 404.798437)scale(0.1 -0.1)">
       <use xlink:href="#DejaVuSans-49"/>
       <use x="63.623047" xlink:href="#DejaVuSans-48"/>
      </g>
     </g>
    </g>
    <g id="xtick_3">
     <g id="line2d_3">
      <g>
       <use style="stroke:#000000;stroke-width:0.8;" x="195.522892" xlink:href="#mb1cace33a6" y="390.2"/>
      </g>
     </g>
     <g id="text_3">
      <!-- 20 -->
      <defs>
       <path d="M 19.1875 8.296875 
L 53.609375 8.296875 
L 53.609375 0 
L 7.328125 0 
L 7.328125 8.296875 
Q 12.9375 14.109375 22.625 23.890625 
Q 32.328125 33.6875 34.8125 36.53125 
Q 39.546875 41.84375 41.421875 45.53125 
Q 43.3125 49.21875 43.3125 52.78125 
Q 43.3125 58.59375 39.234375 62.25 
Q 35.15625 65.921875 28.609375 65.921875 
Q 23.96875 65.921875 18.8125 64.3125 
Q 13.671875 62.703125 7.8125 59.421875 
L 7.8125 69.390625 
Q 13.765625 71.78125 18.9375 73 
Q 24.125 74.21875 28.421875 74.21875 
Q 39.75 74.21875 46.484375 68.546875 
Q 53.21875 62.890625 53.21875 53.421875 
Q 53.21875 48.921875 51.53125 44.890625 
Q 49.859375 40.875 45.40625 35.40625 
Q 44.1875 33.984375 37.640625 27.21875 
Q 31.109375 20.453125 19.1875 8.296875 
z
" id="DejaVuSans-50"/>
      </defs>
      <g transform="translate(189.160392 404.798437)scale(0.1 -0.1)">
       <use xlink:href="#DejaVuSans-50"/>
       <use x="63.623047" xlink:href="#DejaVuSans-48"/>
      </g>
     </g>
    </g>
    <g id="xtick_4">
     <g id="line2d_4">
      <g>
       <use style="stroke:#000000;stroke-width:0.8;" x="259.903656" xlink:href="#mb1cace33a6" y="390.2"/>
      </g>
     </g>
     <g id="text_4">
      <!-- 30 -->
      <defs>
       <path d="M 40.578125 39.3125 
Q 47.65625 37.796875 51.625 33 
Q 55.609375 28.21875 55.609375 21.1875 
Q 55.609375 10.40625 48.1875 4.484375 
Q 40.765625 -1.421875 27.09375 -1.421875 
Q 22.515625 -1.421875 17.65625 -0.515625 
Q 12.796875 0.390625 7.625 2.203125 
L 7.625 11.71875 
Q 11.71875 9.328125 16.59375 8.109375 
Q 21.484375 6.890625 26.8125 6.890625 
Q 36.078125 6.890625 40.9375 10.546875 
Q 45.796875 14.203125 45.796875 21.1875 
Q 45.796875 27.640625 41.28125 31.265625 
Q 36.765625 34.90625 28.71875 34.90625 
L 20.21875 34.90625 
L 20.21875 43.015625 
L 29.109375 43.015625 
Q 36.375 43.015625 40.234375 45.921875 
Q 44.09375 48.828125 44.09375 54.296875 
Q 44.09375 59.90625 40.109375 62.90625 
Q 36.140625 65.921875 28.71875 65.921875 
Q 24.65625 65.921875 20.015625 65.03125 
Q 15.375 64.15625 9.8125 62.3125 
L 9.8125 71.09375 
Q 15.4375 72.65625 20.34375 73.4375 
Q 25.25 74.21875 29.59375 74.21875 
Q 40.828125 74.21875 47.359375 69.109375 
Q 53.90625 64.015625 53.90625 55.328125 
Q 53.90625 49.265625 50.4375 45.09375 
Q 46.96875 40.921875 40.578125 39.3125 
z
" id="DejaVuSans-51"/>
      </defs>
      <g transform="translate(253.541156 404.798437)scale(0.1 -0.1)">
       <use xlink:href="#DejaVuSans-51"/>
       <use x="63.623047" xlink:href="#DejaVuSans-48"/>
      </g>
     </g>
    </g>
    <g id="xtick_5">
     <g id="line2d_5">
      <g>
       <use style="stroke:#000000;stroke-width:0.8;" x="324.28442" xlink:href="#mb1cace33a6" y="390.2"/>
      </g>
     </g>
     <g id="text_5">
      <!-- 40 -->
      <defs>
       <path d="M 37.796875 64.3125 
L 12.890625 25.390625 
L 37.796875 25.390625 
z
M 35.203125 72.90625 
L 47.609375 72.90625 
L 47.609375 25.390625 
L 58.015625 25.390625 
L 58.015625 17.1875 
L 47.609375 17.1875 
L 47.609375 0 
L 37.796875 0 
L 37.796875 17.1875 
L 4.890625 17.1875 
L 4.890625 26.703125 
z
" id="DejaVuSans-52"/>
      </defs>
      <g transform="translate(317.92192 404.798437)scale(0.1 -0.1)">
       <use xlink:href="#DejaVuSans-52"/>
       <use x="63.623047" xlink:href="#DejaVuSans-48"/>
      </g>
     </g>
    </g>
    <g id="xtick_6">
     <g id="line2d_6">
      <g>
       <use style="stroke:#000000;stroke-width:0.8;" x="388.665184" xlink:href="#mb1cace33a6" y="390.2"/>
      </g>
     </g>
     <g id="text_6">
      <!-- 50 -->
      <defs>
       <path d="M 10.796875 72.90625 
L 49.515625 72.90625 
L 49.515625 64.59375 
L 19.828125 64.59375 
L 19.828125 46.734375 
Q 21.96875 47.46875 24.109375 47.828125 
Q 26.265625 48.1875 28.421875 48.1875 
Q 40.625 48.1875 47.75 41.5 
Q 54.890625 34.8125 54.890625 23.390625 
Q 54.890625 11.625 47.5625 5.09375 
Q 40.234375 -1.421875 26.90625 -1.421875 
Q 22.3125 -1.421875 17.546875 -0.640625 
Q 12.796875 0.140625 7.71875 1.703125 
L 7.71875 11.625 
Q 12.109375 9.234375 16.796875 8.0625 
Q 21.484375 6.890625 26.703125 6.890625 
Q 35.15625 6.890625 40.078125 11.328125 
Q 45.015625 15.765625 45.015625 23.390625 
Q 45.015625 31 40.078125 35.4375 
Q 35.15625 39.890625 26.703125 39.890625 
Q 22.75 39.890625 18.8125 39.015625 
Q 14.890625 38.140625 10.796875 36.28125 
z
" id="DejaVuSans-53"/>
      </defs>
      <g transform="translate(382.302684 404.798437)scale(0.1 -0.1)">
       <use xlink:href="#DejaVuSans-53"/>
       <use x="63.623047" xlink:href="#DejaVuSans-48"/>
      </g>
     </g>
    </g>
    <g id="xtick_7">
     <g id="line2d_7">
      <g>
       <use style="stroke:#000000;stroke-width:0.8;" x="453.045949" xlink:href="#mb1cace33a6" y="390.2"/>
      </g>
     </g>
     <g id="text_7">
      <!-- 60 -->
      <defs>
       <path d="M 33.015625 40.375 
Q 26.375 40.375 22.484375 35.828125 
Q 18.609375 31.296875 18.609375 23.390625 
Q 18.609375 15.53125 22.484375 10.953125 
Q 26.375 6.390625 33.015625 6.390625 
Q 39.65625 6.390625 43.53125 10.953125 
Q 47.40625 15.53125 47.40625 23.390625 
Q 47.40625 31.296875 43.53125 35.828125 
Q 39.65625 40.375 33.015625 40.375 
z
M 52.59375 71.296875 
L 52.59375 62.3125 
Q 48.875 64.0625 45.09375 64.984375 
Q 41.3125 65.921875 37.59375 65.921875 
Q 27.828125 65.921875 22.671875 59.328125 
Q 17.53125 52.734375 16.796875 39.40625 
Q 19.671875 43.65625 24.015625 45.921875 
Q 28.375 48.1875 33.59375 48.1875 
Q 44.578125 48.1875 50.953125 41.515625 
Q 57.328125 34.859375 57.328125 23.390625 
Q 57.328125 12.15625 50.6875 5.359375 
Q 44.046875 -1.421875 33.015625 -1.421875 
Q 20.359375 -1.421875 13.671875 8.265625 
Q 6.984375 17.96875 6.984375 36.375 
Q 6.984375 53.65625 15.1875 63.9375 
Q 23.390625 74.21875 37.203125 74.21875 
Q 40.921875 74.21875 44.703125 73.484375 
Q 48.484375 72.75 52.59375 71.296875 
z
" id="DejaVuSans-54"/>
      </defs>
      <g transform="translate(446.683449 404.798437)scale(0.1 -0.1)">
       <use xlink:href="#DejaVuSans-54"/>
       <use x="63.623047" xlink:href="#DejaVuSans-48"/>
      </g>
     </g>
    </g>
    <g id="xtick_8">
     <g id="line2d_8">
      <g>
       <use style="stroke:#000000;stroke-width:0.8;" x="517.426713" xlink:href="#mb1cace33a6" y="390.2"/>
      </g>
     </g>
     <g id="text_8">
      <!-- 70 -->
      <defs>
       <path d="M 8.203125 72.90625 
L 55.078125 72.90625 
L 55.078125 68.703125 
L 28.609375 0 
L 18.3125 0 
L 43.21875 64.59375 
L 8.203125 64.59375 
z
" id="DejaVuSans-55"/>
      </defs>
      <g transform="translate(511.064213 404.798437)scale(0.1 -0.1)">
       <use xlink:href="#DejaVuSans-55"/>
       <use x="63.623047" xlink:href="#DejaVuSans-48"/>
      </g>
     </g>
    </g>
    <g id="text_9">
     <!-- Index -->
     <defs>
      <path d="M 9.8125 72.90625 
L 19.671875 72.90625 
L 19.671875 0 
L 9.8125 0 
z
" id="DejaVuSans-73"/>
      <path d="M 54.890625 33.015625 
L 54.890625 0 
L 45.90625 0 
L 45.90625 32.71875 
Q 45.90625 40.484375 42.875 44.328125 
Q 39.84375 48.1875 33.796875 48.1875 
Q 26.515625 48.1875 22.3125 43.546875 
Q 18.109375 38.921875 18.109375 30.90625 
L 18.109375 0 
L 9.078125 0 
L 9.078125 54.6875 
L 18.109375 54.6875 
L 18.109375 46.1875 
Q 21.34375 51.125 25.703125 53.5625 
Q 30.078125 56 35.796875 56 
Q 45.21875 56 50.046875 50.171875 
Q 54.890625 44.34375 54.890625 33.015625 
z
" id="DejaVuSans-110"/>
      <path d="M 45.40625 46.390625 
L 45.40625 75.984375 
L 54.390625 75.984375 
L 54.390625 0 
L 45.40625 0 
L 45.40625 8.203125 
Q 42.578125 3.328125 38.25 0.953125 
Q 33.9375 -1.421875 27.875 -1.421875 
Q 17.96875 -1.421875 11.734375 6.484375 
Q 5.515625 14.40625 5.515625 27.296875 
Q 5.515625 40.1875 11.734375 48.09375 
Q 17.96875 56 27.875 56 
Q 33.9375 56 38.25 53.625 
Q 42.578125 51.265625 45.40625 46.390625 
z
M 14.796875 27.296875 
Q 14.796875 17.390625 18.875 11.75 
Q 22.953125 6.109375 30.078125 6.109375 
Q 37.203125 6.109375 41.296875 11.75 
Q 45.40625 17.390625 45.40625 27.296875 
Q 45.40625 37.203125 41.296875 42.84375 
Q 37.203125 48.484375 30.078125 48.484375 
Q 22.953125 48.484375 18.875 42.84375 
Q 14.796875 37.203125 14.796875 27.296875 
z
" id="DejaVuSans-100"/>
      <path d="M 56.203125 29.59375 
L 56.203125 25.203125 
L 14.890625 25.203125 
Q 15.484375 15.921875 20.484375 11.0625 
Q 25.484375 6.203125 34.421875 6.203125 
Q 39.59375 6.203125 44.453125 7.46875 
Q 49.3125 8.734375 54.109375 11.28125 
L 54.109375 2.78125 
Q 49.265625 0.734375 44.1875 -0.34375 
Q 39.109375 -1.421875 33.890625 -1.421875 
Q 20.796875 -1.421875 13.15625 6.1875 
Q 5.515625 13.8125 5.515625 26.8125 
Q 5.515625 40.234375 12.765625 48.109375 
Q 20.015625 56 32.328125 56 
Q 43.359375 56 49.78125 48.890625 
Q 56.203125 41.796875 56.203125 29.59375 
z
M 47.21875 32.234375 
Q 47.125 39.59375 43.09375 43.984375 
Q 39.0625 48.390625 32.421875 48.390625 
Q 24.90625 48.390625 20.390625 44.140625 
Q 15.875 39.890625 15.1875 32.171875 
z
" id="DejaVuSans-101"/>
      <path d="M 54.890625 54.6875 
L 35.109375 28.078125 
L 55.90625 0 
L 45.3125 0 
L 29.390625 21.484375 
L 13.484375 0 
L 2.875 0 
L 24.125 28.609375 
L 4.6875 54.6875 
L 15.28125 54.6875 
L 29.78125 35.203125 
L 44.28125 54.6875 
z
" id="DejaVuSans-120"/>
     </defs>
     <g transform="translate(275.021875 418.476562)scale(0.1 -0.1)">
      <use xlink:href="#DejaVuSans-73"/>
      <use x="29.492188" xlink:href="#DejaVuSans-110"/>
      <use x="92.871094" xlink:href="#DejaVuSans-100"/>
      <use x="156.347656" xlink:href="#DejaVuSans-101"/>
      <use x="217.855469" xlink:href="#DejaVuSans-120"/>
     </g>
    </g>
   </g>
   <g id="matplotlib.axis_2">
    <g id="ytick_1">
     <g id="line2d_9">
      <defs>
       <path d="M 0 0 
L -3.5 0 
" id="m5fbe96f908" style="stroke:#000000;stroke-width:0.8;"/>
      </defs>
      <g>
       <use style="stroke:#000000;stroke-width:0.8;" x="44.55" xlink:href="#m5fbe96f908" y="345.774825"/>
      </g>
     </g>
     <g id="text_10">
      <!-- 20 -->
      <g transform="translate(24.825 349.574043)scale(0.1 -0.1)">
       <use xlink:href="#DejaVuSans-50"/>
       <use x="63.623047" xlink:href="#DejaVuSans-48"/>
      </g>
     </g>
    </g>
    <g id="ytick_2">
     <g id="line2d_10">
      <g>
       <use style="stroke:#000000;stroke-width:0.8;" x="44.55" xlink:href="#m5fbe96f908" y="297.857681"/>
      </g>
     </g>
     <g id="text_11">
      <!-- 25 -->
      <g transform="translate(24.825 301.656899)scale(0.1 -0.1)">
       <use xlink:href="#DejaVuSans-50"/>
       <use x="63.623047" xlink:href="#DejaVuSans-53"/>
      </g>
     </g>
    </g>
    <g id="ytick_3">
     <g id="line2d_11">
      <g>
       <use style="stroke:#000000;stroke-width:0.8;" x="44.55" xlink:href="#m5fbe96f908" y="249.940537"/>
      </g>
     </g>
     <g id="text_12">
      <!-- 30 -->
      <g transform="translate(24.825 253.739756)scale(0.1 -0.1)">
       <use xlink:href="#DejaVuSans-51"/>
       <use x="63.623047" xlink:href="#DejaVuSans-48"/>
      </g>
     </g>
    </g>
    <g id="ytick_4">
     <g id="line2d_12">
      <g>
       <use style="stroke:#000000;stroke-width:0.8;" x="44.55" xlink:href="#m5fbe96f908" y="202.023393"/>
      </g>
     </g>
     <g id="text_13">
      <!-- 35 -->
      <g transform="translate(24.825 205.822612)scale(0.1 -0.1)">
       <use xlink:href="#DejaVuSans-51"/>
       <use x="63.623047" xlink:href="#DejaVuSans-53"/>
      </g>
     </g>
    </g>
    <g id="ytick_5">
     <g id="line2d_13">
      <g>
       <use style="stroke:#000000;stroke-width:0.8;" x="44.55" xlink:href="#m5fbe96f908" y="154.106249"/>
      </g>
     </g>
     <g id="text_14">
      <!-- 40 -->
      <g transform="translate(24.825 157.905468)scale(0.1 -0.1)">
       <use xlink:href="#DejaVuSans-52"/>
       <use x="63.623047" xlink:href="#DejaVuSans-48"/>
      </g>
     </g>
    </g>
    <g id="ytick_6">
     <g id="line2d_14">
      <g>
       <use style="stroke:#000000;stroke-width:0.8;" x="44.55" xlink:href="#m5fbe96f908" y="106.189105"/>
      </g>
     </g>
     <g id="text_15">
      <!-- 45 -->
      <g transform="translate(24.825 109.988324)scale(0.1 -0.1)">
       <use xlink:href="#DejaVuSans-52"/>
       <use x="63.623047" xlink:href="#DejaVuSans-53"/>
      </g>
     </g>
    </g>
    <g id="ytick_7">
     <g id="line2d_15">
      <g>
       <use style="stroke:#000000;stroke-width:0.8;" x="44.55" xlink:href="#m5fbe96f908" y="58.271961"/>
      </g>
     </g>
     <g id="text_16">
      <!-- 50 -->
      <g transform="translate(24.825 62.07118)scale(0.1 -0.1)">
       <use xlink:href="#DejaVuSans-53"/>
       <use x="63.623047" xlink:href="#DejaVuSans-48"/>
      </g>
     </g>
    </g>
    <g id="text_17">
     <!-- Temperature deg-C -->
     <defs>
      <path d="M -0.296875 72.90625 
L 61.375 72.90625 
L 61.375 64.59375 
L 35.5 64.59375 
L 35.5 0 
L 25.59375 0 
L 25.59375 64.59375 
L -0.296875 64.59375 
z
" id="DejaVuSans-84"/>
      <path d="M 52 44.1875 
Q 55.375 50.25 60.0625 53.125 
Q 64.75 56 71.09375 56 
Q 79.640625 56 84.28125 50.015625 
Q 88.921875 44.046875 88.921875 33.015625 
L 88.921875 0 
L 79.890625 0 
L 79.890625 32.71875 
Q 79.890625 40.578125 77.09375 44.375 
Q 74.3125 48.1875 68.609375 48.1875 
Q 61.625 48.1875 57.5625 43.546875 
Q 53.515625 38.921875 53.515625 30.90625 
L 53.515625 0 
L 44.484375 0 
L 44.484375 32.71875 
Q 44.484375 40.625 41.703125 44.40625 
Q 38.921875 48.1875 33.109375 48.1875 
Q 26.21875 48.1875 22.15625 43.53125 
Q 18.109375 38.875 18.109375 30.90625 
L 18.109375 0 
L 9.078125 0 
L 9.078125 54.6875 
L 18.109375 54.6875 
L 18.109375 46.1875 
Q 21.1875 51.21875 25.484375 53.609375 
Q 29.78125 56 35.6875 56 
Q 41.65625 56 45.828125 52.96875 
Q 50 49.953125 52 44.1875 
z
" id="DejaVuSans-109"/>
      <path d="M 18.109375 8.203125 
L 18.109375 -20.796875 
L 9.078125 -20.796875 
L 9.078125 54.6875 
L 18.109375 54.6875 
L 18.109375 46.390625 
Q 20.953125 51.265625 25.265625 53.625 
Q 29.59375 56 35.59375 56 
Q 45.5625 56 51.78125 48.09375 
Q 58.015625 40.1875 58.015625 27.296875 
Q 58.015625 14.40625 51.78125 6.484375 
Q 45.5625 -1.421875 35.59375 -1.421875 
Q 29.59375 -1.421875 25.265625 0.953125 
Q 20.953125 3.328125 18.109375 8.203125 
z
M 48.6875 27.296875 
Q 48.6875 37.203125 44.609375 42.84375 
Q 40.53125 48.484375 33.40625 48.484375 
Q 26.265625 48.484375 22.1875 42.84375 
Q 18.109375 37.203125 18.109375 27.296875 
Q 18.109375 17.390625 22.1875 11.75 
Q 26.265625 6.109375 33.40625 6.109375 
Q 40.53125 6.109375 44.609375 11.75 
Q 48.6875 17.390625 48.6875 27.296875 
z
" id="DejaVuSans-112"/>
      <path d="M 41.109375 46.296875 
Q 39.59375 47.171875 37.8125 47.578125 
Q 36.03125 48 33.890625 48 
Q 26.265625 48 22.1875 43.046875 
Q 18.109375 38.09375 18.109375 28.8125 
L 18.109375 0 
L 9.078125 0 
L 9.078125 54.6875 
L 18.109375 54.6875 
L 18.109375 46.1875 
Q 20.953125 51.171875 25.484375 53.578125 
Q 30.03125 56 36.53125 56 
Q 37.453125 56 38.578125 55.875 
Q 39.703125 55.765625 41.0625 55.515625 
z
" id="DejaVuSans-114"/>
      <path d="M 34.28125 27.484375 
Q 23.390625 27.484375 19.1875 25 
Q 14.984375 22.515625 14.984375 16.5 
Q 14.984375 11.71875 18.140625 8.90625 
Q 21.296875 6.109375 26.703125 6.109375 
Q 34.1875 6.109375 38.703125 11.40625 
Q 43.21875 16.703125 43.21875 25.484375 
L 43.21875 27.484375 
z
M 52.203125 31.203125 
L 52.203125 0 
L 43.21875 0 
L 43.21875 8.296875 
Q 40.140625 3.328125 35.546875 0.953125 
Q 30.953125 -1.421875 24.3125 -1.421875 
Q 15.921875 -1.421875 10.953125 3.296875 
Q 6 8.015625 6 15.921875 
Q 6 25.140625 12.171875 29.828125 
Q 18.359375 34.515625 30.609375 34.515625 
L 43.21875 34.515625 
L 43.21875 35.40625 
Q 43.21875 41.609375 39.140625 45 
Q 35.0625 48.390625 27.6875 48.390625 
Q 23 48.390625 18.546875 47.265625 
Q 14.109375 46.140625 10.015625 43.890625 
L 10.015625 52.203125 
Q 14.9375 54.109375 19.578125 55.046875 
Q 24.21875 56 28.609375 56 
Q 40.484375 56 46.34375 49.84375 
Q 52.203125 43.703125 52.203125 31.203125 
z
" id="DejaVuSans-97"/>
      <path d="M 18.3125 70.21875 
L 18.3125 54.6875 
L 36.8125 54.6875 
L 36.8125 47.703125 
L 18.3125 47.703125 
L 18.3125 18.015625 
Q 18.3125 11.328125 20.140625 9.421875 
Q 21.96875 7.515625 27.59375 7.515625 
L 36.8125 7.515625 
L 36.8125 0 
L 27.59375 0 
Q 17.1875 0 13.234375 3.875 
Q 9.28125 7.765625 9.28125 18.015625 
L 9.28125 47.703125 
L 2.6875 47.703125 
L 2.6875 54.6875 
L 9.28125 54.6875 
L 9.28125 70.21875 
z
" id="DejaVuSans-116"/>
      <path d="M 8.5 21.578125 
L 8.5 54.6875 
L 17.484375 54.6875 
L 17.484375 21.921875 
Q 17.484375 14.15625 20.5 10.265625 
Q 23.53125 6.390625 29.59375 6.390625 
Q 36.859375 6.390625 41.078125 11.03125 
Q 45.3125 15.671875 45.3125 23.6875 
L 45.3125 54.6875 
L 54.296875 54.6875 
L 54.296875 0 
L 45.3125 0 
L 45.3125 8.40625 
Q 42.046875 3.421875 37.71875 1 
Q 33.40625 -1.421875 27.6875 -1.421875 
Q 18.265625 -1.421875 13.375 4.4375 
Q 8.5 10.296875 8.5 21.578125 
z
M 31.109375 56 
z
" id="DejaVuSans-117"/>
      <path id="DejaVuSans-32"/>
      <path d="M 45.40625 27.984375 
Q 45.40625 37.75 41.375 43.109375 
Q 37.359375 48.484375 30.078125 48.484375 
Q 22.859375 48.484375 18.828125 43.109375 
Q 14.796875 37.75 14.796875 27.984375 
Q 14.796875 18.265625 18.828125 12.890625 
Q 22.859375 7.515625 30.078125 7.515625 
Q 37.359375 7.515625 41.375 12.890625 
Q 45.40625 18.265625 45.40625 27.984375 
z
M 54.390625 6.78125 
Q 54.390625 -7.171875 48.1875 -13.984375 
Q 42 -20.796875 29.203125 -20.796875 
Q 24.46875 -20.796875 20.265625 -20.09375 
Q 16.0625 -19.390625 12.109375 -17.921875 
L 12.109375 -9.1875 
Q 16.0625 -11.328125 19.921875 -12.34375 
Q 23.78125 -13.375 27.78125 -13.375 
Q 36.625 -13.375 41.015625 -8.765625 
Q 45.40625 -4.15625 45.40625 5.171875 
L 45.40625 9.625 
Q 42.625 4.78125 38.28125 2.390625 
Q 33.9375 0 27.875 0 
Q 17.828125 0 11.671875 7.65625 
Q 5.515625 15.328125 5.515625 27.984375 
Q 5.515625 40.671875 11.671875 48.328125 
Q 17.828125 56 27.875 56 
Q 33.9375 56 38.28125 53.609375 
Q 42.625 51.21875 45.40625 46.390625 
L 45.40625 54.6875 
L 54.390625 54.6875 
z
" id="DejaVuSans-103"/>
      <path d="M 4.890625 31.390625 
L 31.203125 31.390625 
L 31.203125 23.390625 
L 4.890625 23.390625 
z
" id="DejaVuSans-45"/>
      <path d="M 64.40625 67.28125 
L 64.40625 56.890625 
Q 59.421875 61.53125 53.78125 63.8125 
Q 48.140625 66.109375 41.796875 66.109375 
Q 29.296875 66.109375 22.65625 58.46875 
Q 16.015625 50.828125 16.015625 36.375 
Q 16.015625 21.96875 22.65625 14.328125 
Q 29.296875 6.6875 41.796875 6.6875 
Q 48.140625 6.6875 53.78125 8.984375 
Q 59.421875 11.28125 64.40625 15.921875 
L 64.40625 5.609375 
Q 59.234375 2.09375 53.4375 0.328125 
Q 47.65625 -1.421875 41.21875 -1.421875 
Q 24.65625 -1.421875 15.125 8.703125 
Q 5.609375 18.84375 5.609375 36.375 
Q 5.609375 53.953125 15.125 64.078125 
Q 24.65625 74.21875 41.21875 74.21875 
Q 47.75 74.21875 53.53125 72.484375 
Q 59.328125 70.75 64.40625 67.28125 
z
" id="DejaVuSans-67"/>
     </defs>
     <g transform="translate(18.745312 249.426562)rotate(-90)scale(0.1 -0.1)">
      <use xlink:href="#DejaVuSans-84"/>
      <use x="60.818359" xlink:href="#DejaVuSans-101"/>
      <use x="122.341797" xlink:href="#DejaVuSans-109"/>
      <use x="219.753906" xlink:href="#DejaVuSans-112"/>
      <use x="283.230469" xlink:href="#DejaVuSans-101"/>
      <use x="344.753906" xlink:href="#DejaVuSans-114"/>
      <use x="385.867188" xlink:href="#DejaVuSans-97"/>
      <use x="447.146484" xlink:href="#DejaVuSans-116"/>
      <use x="486.355469" xlink:href="#DejaVuSans-117"/>
      <use x="549.734375" xlink:href="#DejaVuSans-114"/>
      <use x="590.816406" xlink:href="#DejaVuSans-101"/>
      <use x="652.339844" xlink:href="#DejaVuSans-32"/>
      <use x="684.126953" xlink:href="#DejaVuSans-100"/>
      <use x="747.603516" xlink:href="#DejaVuSans-101"/>
      <use x="809.126953" xlink:href="#DejaVuSans-103"/>
      <use x="872.603516" xlink:href="#DejaVuSans-45"/>
      <use x="908.6875" xlink:href="#DejaVuSans-67"/>
     </g>
    </g>
   </g>
   <g id="line2d_16">
    <path clip-path="url(#pb7c980ad2f)" d="M 66.761364 194.932369 
L 73.19944 198.001402 
L 79.637516 219.314023 
L 86.075593 250.314852 
L 92.513669 254.836431 
L 98.951746 264.265494 
L 105.389822 266.680864 
L 111.827899 274.980369 
L 118.265975 278.142758 
L 124.704051 281.00279 
L 131.142128 282.567722 
L 137.580204 289.876012 
L 144.018281 290.492547 
L 150.456357 292.223118 
L 156.894433 295.785974 
L 163.33251 301.770206 
L 169.770586 302.35816 
L 176.208663 303.297219 
L 182.646739 304.271702 
L 189.084816 304.464982 
L 195.522892 306.96871 
L 201.960968 308.001904 
L 208.399045 312.367268 
L 214.837121 317.397594 
L 221.275198 317.783814 
L 227.713274 318.156866 
L 234.15135 319.562092 
L 240.589427 319.571027 
L 247.027503 319.838381 
L 253.46558 320.464129 
L 259.903656 320.429713 
L 266.341733 321.471617 
L 272.779809 324.512271 
L 279.217885 324.543749 
L 285.655962 327.04919 
L 292.094038 327.464353 
L 298.532115 327.838516 
L 304.970191 329.963817 
L 311.408267 330.41413 
L 317.846344 330.439569 
L 324.28442 330.597131 
L 330.722497 331.991974 
L 337.160573 332.26806 
L 343.59865 332.226865 
L 350.036726 332.432913 
L 356.474802 332.944011 
L 362.912879 332.962789 
L 369.350955 332.86286 
L 375.789032 333.111389 
L 382.227108 333.416269 
L 388.665184 334.178522 
L 395.103261 335.674996 
L 401.541337 337.169167 
L 407.979414 339.072897 
L 414.41749 339.129148 
L 420.855567 339.536591 
L 427.293643 339.310827 
L 433.731719 338.210223 
L 440.169796 336.677514 
L 446.607872 334.147694 
L 453.045949 332.226163 
L 459.484025 328.209417 
L 465.922101 327.887258 
L 472.360178 327.408037 
L 478.798254 326.934247 
L 485.236331 324.593963 
L 491.674407 323.789037 
L 498.112484 323.47653 
L 504.55056 322.887374 
L 510.988636 322.488792 
" style="fill:none;stroke:#000080;stroke-dasharray:9.6,2.4,1.5,2.4;stroke-dashoffset:0;stroke-opacity:0.7;stroke-width:1.5;"/>
   </g>
   <g id="line2d_17">
    <path clip-path="url(#pb7c980ad2f)" d="M 66.761364 189.496893 
L 73.19944 200.554253 
L 79.637516 221.032124 
L 86.075593 250.264457 
L 92.513669 255.457717 
L 98.951746 262.923208 
L 105.389822 266.168157 
L 111.827899 274.603491 
L 118.265975 277.847481 
L 124.704051 281.090514 
L 131.142128 283.036908 
L 137.580204 291.143531 
L 144.018281 292.765047 
L 150.456357 292.116249 
L 156.894433 297.303759 
L 163.33251 301.841512 
L 169.770586 301.841512 
L 176.208663 303.13815 
L 182.646739 303.46207 
L 189.084816 303.786948 
L 195.522892 307.351984 
L 201.960968 308.323743 
L 208.399045 312.860538 
L 214.837121 317.720295 
L 221.275198 318.044215 
L 227.713274 318.368135 
L 234.15135 319.339895 
L 240.589427 319.663815 
L 247.027503 319.663815 
L 253.46558 320.311654 
L 259.903656 320.311654 
L 266.341733 321.607334 
L 272.779809 324.846533 
L 279.217885 324.846533 
L 285.655962 327.113972 
L 292.094038 327.437892 
L 298.532115 328.085732 
L 304.970191 330.029251 
L 311.408267 330.352213 
L 317.846344 331.000052 
L 324.28442 331.000052 
L 330.722497 331.971812 
L 337.160573 331.971812 
L 343.59865 331.971812 
L 350.036726 332.295732 
L 356.474802 332.943572 
L 362.912879 332.943572 
L 369.350955 333.590453 
L 375.789032 333.914373 
L 382.227108 333.914373 
L 388.665184 334.238293 
L 395.103261 334.886133 
L 401.541337 335.210053 
L 407.979414 335.210053 
L 414.41749 335.857893 
L 420.855567 335.533973 
L 427.293643 335.533973 
L 433.731719 335.533973 
L 440.169796 335.533973 
L 446.607872 335.857893 
L 453.045949 335.533973 
L 459.484025 335.533973 
L 465.922101 335.210053 
L 472.360178 335.533973 
L 478.798254 335.533973 
L 485.236331 335.210053 
L 491.674407 335.210053 
L 498.112484 335.210053 
L 504.55056 335.210053 
L 510.988636 334.562213 
" style="fill:none;stroke:#000080;stroke-linecap:square;stroke-opacity:0.7;stroke-width:1.5;"/>
   </g>
   <g id="line2d_18">
    <path clip-path="url(#pb7c980ad2f)" d="M 66.761364 68.123351 
L 73.19944 74.168879 
L 79.637516 84.960611 
L 86.075593 182.131399 
L 92.513669 207.295283 
L 98.951746 233.5495 
L 105.389822 246.6874 
L 111.827899 261.535222 
L 118.265975 267.888188 
L 124.704051 273.014489 
L 131.142128 273.706198 
L 137.580204 284.631022 
L 144.018281 285.572776 
L 150.456357 285.981861 
L 156.894433 291.870221 
L 163.33251 299.322801 
L 169.770586 300.268053 
L 176.208663 301.876208 
L 182.646739 301.679685 
L 189.084816 303.112177 
L 195.522892 306.358453 
L 201.960968 307.592617 
L 208.399045 312.027689 
L 214.837121 317.747772 
L 221.275198 318.496688 
L 227.713274 318.685235 
L 234.15135 319.201214 
L 240.589427 320.132691 
L 247.027503 320.813226 
L 253.46558 321.016227 
L 259.903656 321.697387 
L 266.341733 322.294288 
L 272.779809 326.244621 
L 279.217885 326.050112 
L 285.655962 327.527111 
L 292.094038 328.195709 
L 298.532115 328.857477 
L 304.970191 330.554266 
L 311.408267 331.178661 
L 317.846344 331.898175 
L 324.28442 331.636399 
L 330.722497 332.060509 
L 337.160573 332.386463 
L 343.59865 332.476575 
L 350.036726 332.758358 
L 356.474802 332.707057 
L 362.912879 334.10509 
L 369.350955 334.292806 
L 375.789032 333.582861 
L 382.227108 333.417226 
L 388.665184 334.381301 
L 395.103261 336.881724 
L 401.541337 341.926999 
L 407.979414 349.935423 
L 414.41749 351.96554 
L 420.855567 353.006744 
L 427.293643 353.245954 
L 433.731719 351.402199 
L 440.169796 349.603224 
L 446.607872 346.480022 
L 453.045949 346.665533 
L 459.484025 343.758228 
L 465.922101 344.509354 
L 472.360178 344.278876 
L 478.798254 343.950928 
L 485.236331 340.044912 
L 491.674407 337.295842 
L 498.112484 336.959794 
L 504.55056 334.721982 
L 510.988636 332.768335 
" style="fill:none;stroke:#0000ff;stroke-dasharray:9.6,2.4,1.5,2.4;stroke-dashoffset:0;stroke-opacity:0.7;stroke-width:1.5;"/>
   </g>
   <g id="line2d_19">
    <path clip-path="url(#pb7c980ad2f)" d="M 66.761364 71.534469 
L 73.19944 74.472748 
L 79.637516 83.284711 
L 86.075593 181.039517 
L 92.513669 208.032203 
L 98.951746 235.326766 
L 105.389822 245.06928 
L 111.827899 259.677301 
L 118.265975 266.816955 
L 124.704051 271.3595 
L 131.142128 272.657096 
L 137.580204 283.036908 
L 144.018281 284.009626 
L 150.456357 285.307222 
L 156.894433 292.116249 
L 163.33251 298.600396 
L 169.770586 298.600396 
L 176.208663 300.869752 
L 182.646739 301.517592 
L 189.084816 301.841512 
L 195.522892 305.407506 
L 201.960968 307.027105 
L 208.399045 310.916061 
L 214.837121 317.072455 
L 221.275198 317.396375 
L 227.713274 317.396375 
L 234.15135 318.368135 
L 240.589427 319.015975 
L 247.027503 319.015975 
L 253.46558 320.311654 
L 259.903656 320.959494 
L 266.341733 321.607334 
L 272.779809 324.846533 
L 279.217885 325.170453 
L 285.655962 326.790052 
L 292.094038 327.113972 
L 298.532115 327.761812 
L 304.970191 330.029251 
L 311.408267 330.352213 
L 317.846344 331.000052 
L 324.28442 331.000052 
L 330.722497 331.971812 
L 337.160573 332.295732 
L 343.59865 332.295732 
L 350.036726 332.295732 
L 356.474802 332.943572 
L 362.912879 332.619652 
L 369.350955 333.914373 
L 375.789032 333.590453 
L 382.227108 333.590453 
L 388.665184 333.914373 
L 395.103261 333.914373 
L 401.541337 334.562213 
L 407.979414 334.886133 
L 414.41749 334.886133 
L 420.855567 335.210053 
L 427.293643 334.886133 
L 433.731719 334.886133 
L 440.169796 335.210053 
L 446.607872 334.886133 
L 453.045949 334.886133 
L 459.484025 334.562213 
L 465.922101 334.562213 
L 472.360178 334.562213 
L 478.798254 334.562213 
L 485.236331 334.238293 
L 491.674407 334.562213 
L 498.112484 333.914373 
L 504.55056 334.238293 
L 510.988636 333.914373 
" style="fill:none;stroke:#0000ff;stroke-linecap:square;stroke-opacity:0.7;stroke-width:1.5;"/>
   </g>
   <g id="line2d_20">
    <path clip-path="url(#pb7c980ad2f)" d="M 66.761364 50.692005 
L 73.19944 48.551918 
L 79.637516 50.666654 
L 86.075593 59.773747 
L 92.513669 60.718642 
L 98.951746 62.766921 
L 105.389822 62.548617 
L 111.827899 64.86381 
L 118.265975 67.578208 
L 124.704051 68.083071 
L 131.142128 70.252746 
L 137.580204 86.132698 
L 144.018281 90.616252 
L 150.456357 94.951174 
L 156.894433 131.485723 
L 163.33251 202.232433 
L 169.770586 208.060432 
L 176.208663 217.503939 
L 182.646739 225.097497 
L 189.084816 231.967785 
L 195.522892 249.243283 
L 201.960968 255.403546 
L 208.399045 276.971097 
L 214.837121 295.039548 
L 221.275198 296.464076 
L 227.713274 297.082129 
L 234.15135 298.57607 
L 240.589427 299.294067 
L 247.027503 300.30624 
L 253.46558 302.50402 
L 259.903656 303.696937 
L 266.341733 306.844446 
L 272.779809 314.603453 
L 279.217885 315.100608 
L 285.655962 319.810946 
L 292.094038 319.625722 
L 298.532115 320.884441 
L 304.970191 325.5254 
L 311.408267 327.06566 
L 317.846344 327.967101 
L 324.28442 328.249107 
L 330.722497 329.777426 
L 337.160573 330.927653 
L 343.59865 330.596047 
L 350.036726 331.595215 
L 356.474802 331.502076 
L 362.912879 331.05863 
L 369.350955 333.235864 
L 375.789032 333.920508 
L 382.227108 333.621032 
L 388.665184 334.125706 
L 395.103261 334.640027 
L 401.541337 337.179418 
L 407.979414 339.225827 
L 414.41749 341.492057 
L 420.855567 342.102702 
L 427.293643 342.967551 
L 433.731719 341.332204 
L 440.169796 339.198309 
L 446.607872 336.366242 
L 453.045949 334.310786 
L 459.484025 331.909917 
L 465.922101 331.828586 
L 472.360178 331.382759 
L 478.798254 331.624354 
L 485.236331 329.951431 
L 491.674407 329.89183 
L 498.112484 329.942508 
L 504.55056 330.208671 
L 510.988636 331.106209 
" style="fill:none;stroke:#0060ff;stroke-dasharray:9.6,2.4,1.5,2.4;stroke-dashoffset:0;stroke-opacity:0.7;stroke-width:1.5;"/>
   </g>
   <g id="line2d_21">
    <path clip-path="url(#pb7c980ad2f)" d="M 66.761364 47.693773 
L 73.19944 49.000952 
L 79.637516 50.633969 
L 86.075593 59.779435 
L 92.513669 61.085656 
L 98.951746 62.718672 
L 105.389822 63.698099 
L 111.827899 65.65791 
L 118.265975 66.637336 
L 124.704051 68.269394 
L 131.142128 68.922984 
L 137.580204 86.548826 
L 144.018281 89.158394 
L 150.456357 96.009587 
L 156.894433 132.525326 
L 163.33251 200.554253 
L 169.770586 205.106382 
L 176.208663 221.357002 
L 182.646739 225.581378 
L 189.084816 231.104308 
L 195.522892 248.964944 
L 201.960968 256.431393 
L 208.399045 276.873805 
L 214.837121 295.034403 
L 221.275198 295.683201 
L 227.713274 296.979839 
L 234.15135 298.924316 
L 240.589427 299.573114 
L 247.027503 301.193672 
L 253.46558 302.49031 
L 259.903656 302.81423 
L 266.341733 305.731426 
L 272.779809 313.184458 
L 279.217885 314.156218 
L 285.655962 319.987734 
L 292.094038 320.311654 
L 298.532115 320.959494 
L 304.970191 326.790052 
L 311.408267 327.437892 
L 317.846344 328.085732 
L 324.28442 328.409652 
L 330.722497 330.352213 
L 337.160573 330.676133 
L 343.59865 330.352213 
L 350.036726 331.647892 
L 356.474802 331.971812 
L 362.912879 332.295732 
L 369.350955 333.267492 
L 375.789032 333.267492 
L 382.227108 333.590453 
L 388.665184 333.914373 
L 395.103261 333.914373 
L 401.541337 334.562213 
L 407.979414 334.886133 
L 414.41749 335.210053 
L 420.855567 335.533973 
L 427.293643 335.533973 
L 433.731719 335.533973 
L 440.169796 335.857893 
L 446.607872 335.533973 
L 453.045949 335.533973 
L 459.484025 335.533973 
L 465.922101 335.533973 
L 472.360178 335.533973 
L 478.798254 335.533973 
L 485.236331 335.210053 
L 491.674407 335.210053 
L 498.112484 335.210053 
L 504.55056 335.533973 
L 510.988636 335.210053 
" style="fill:none;stroke:#0060ff;stroke-linecap:square;stroke-opacity:0.7;stroke-width:1.5;"/>
   </g>
   <g id="line2d_22">
    <path clip-path="url(#pb7c980ad2f)" d="M 66.761364 45.153952 
L 73.19944 40.391854 
L 79.637516 40.439669 
L 86.075593 44.508774 
L 92.513669 43.742915 
L 98.951746 45.342745 
L 105.389822 45.836452 
L 111.827899 46.890518 
L 118.265975 47.727746 
L 124.704051 48.045036 
L 131.142128 48.778045 
L 137.580204 52.170741 
L 144.018281 52.956651 
L 150.456357 52.848945 
L 156.894433 56.919318 
L 163.33251 60.257615 
L 169.770586 60.52827 
L 176.208663 61.012242 
L 182.646739 61.818944 
L 189.084816 62.997211 
L 195.522892 64.239859 
L 201.960968 64.774092 
L 208.399045 71.471003 
L 214.837121 116.713862 
L 221.275198 124.462374 
L 227.713274 131.50763 
L 234.15135 157.292207 
L 240.589427 164.944192 
L 247.027503 180.134823 
L 253.46558 191.213393 
L 259.903656 197.681759 
L 266.341733 226.734973 
L 272.779809 271.113387 
L 279.217885 272.577177 
L 285.655962 289.225743 
L 292.094038 290.627767 
L 298.532115 294.092765 
L 304.970191 307.900529 
L 311.408267 310.75323 
L 317.846344 311.700006 
L 324.28442 312.392858 
L 330.722497 318.114 
L 337.160573 319.243903 
L 343.59865 319.190235 
L 350.036726 319.948651 
L 356.474802 322.109267 
L 362.912879 323.326783 
L 369.350955 325.739939 
L 375.789032 326.212041 
L 382.227108 326.073606 
L 388.665184 329.573259 
L 395.103261 332.365705 
L 401.541337 337.672321 
L 407.979414 343.676851 
L 414.41749 345.456113 
L 420.855567 346.623571 
L 427.293643 346.50903 
L 433.731719 346.616022 
L 440.169796 346.453381 
L 446.607872 347.074287 
L 453.045949 348.327317 
L 459.484025 350.347231 
L 465.922101 350.208783 
L 472.360178 350.728457 
L 478.798254 350.744623 
L 485.236331 350.123356 
L 491.674407 347.891785 
L 498.112484 347.584243 
L 504.55056 346.042394 
L 510.988636 342.135719 
" style="fill:none;stroke:#00d4ff;stroke-dasharray:9.6,2.4,1.5,2.4;stroke-dashoffset:0;stroke-opacity:0.7;stroke-width:1.5;"/>
   </g>
   <g id="line2d_23">
    <path clip-path="url(#pb7c980ad2f)" d="M 66.761364 40.505243 
L 73.19944 40.832038 
L 79.637516 41.158833 
L 86.075593 43.119602 
L 92.513669 43.119602 
L 98.951746 44.426782 
L 105.389822 46.059798 
L 111.827899 47.040183 
L 118.265975 47.040183 
L 124.704051 48.020568 
L 131.142128 48.347363 
L 137.580204 52.920575 
L 144.018281 52.59378 
L 150.456357 52.920575 
L 156.894433 57.166992 
L 163.33251 60.10623 
L 169.770586 61.085656 
L 176.208663 61.739246 
L 182.646739 62.718672 
L 189.084816 62.391877 
L 195.522892 63.698099 
L 201.960968 64.351689 
L 208.399045 69.902411 
L 214.837121 120.792334 
L 221.275198 126.659309 
L 227.713274 137.412875 
L 234.15135 159.233384 
L 240.589427 167.045795 
L 247.027503 177.784985 
L 253.46558 190.147608 
L 259.903656 201.20401 
L 266.341733 226.231134 
L 272.779809 271.3595 
L 279.217885 273.305895 
L 285.655962 288.550255 
L 292.094038 289.522973 
L 298.532115 293.413845 
L 304.970191 308.323743 
L 311.408267 310.268221 
L 317.846344 311.563901 
L 324.28442 312.536619 
L 330.722497 317.720295 
L 337.160573 318.692055 
L 343.59865 319.339895 
L 350.036726 319.663815 
L 356.474802 321.607334 
L 362.912879 322.255174 
L 369.350955 325.818293 
L 375.789032 326.790052 
L 382.227108 326.466132 
L 388.665184 329.381411 
L 395.103261 329.705331 
L 401.541337 331.323972 
L 407.979414 333.267492 
L 414.41749 333.267492 
L 420.855567 333.590453 
L 427.293643 333.914373 
L 433.731719 334.562213 
L 440.169796 334.886133 
L 446.607872 334.238293 
L 453.045949 335.210053 
L 459.484025 334.562213 
L 465.922101 334.886133 
L 472.360178 334.562213 
L 478.798254 334.238293 
L 485.236331 334.886133 
L 491.674407 335.210053 
L 498.112484 334.886133 
L 504.55056 334.886133 
L 510.988636 334.562213 
" style="fill:none;stroke:#00d4ff;stroke-linecap:square;stroke-opacity:0.7;stroke-width:1.5;"/>
   </g>
   <g id="line2d_24">
    <path clip-path="url(#pb7c980ad2f)" d="M 66.761364 40.634008 
L 73.19944 37.486519 
L 79.637516 37.266409 
L 86.075593 39.723674 
L 92.513669 38.707714 
L 98.951746 39.616798 
L 105.389822 40.457684 
L 111.827899 40.891904 
L 118.265975 40.592829 
L 124.704051 41.902721 
L 131.142128 42.029134 
L 137.580204 43.698853 
L 144.018281 42.074706 
L 150.456357 43.087898 
L 156.894433 43.873533 
L 163.33251 46.148778 
L 169.770586 45.305838 
L 176.208663 46.071974 
L 182.646739 46.129314 
L 189.084816 46.553534 
L 195.522892 48.056214 
L 201.960968 48.415594 
L 208.399045 52.820725 
L 214.837121 58.44046 
L 221.275198 59.446581 
L 227.713274 59.219596 
L 234.15135 60.627115 
L 240.589427 61.997204 
L 247.027503 62.585462 
L 253.46558 63.286115 
L 259.903656 62.092224 
L 266.341733 63.149934 
L 272.779809 77.469608 
L 279.217885 80.092982 
L 285.655962 128.677971 
L 292.094038 135.867496 
L 298.532115 163.74903 
L 304.970191 255.867771 
L 311.408267 265.204766 
L 317.846344 272.264048 
L 324.28442 272.827315 
L 330.722497 291.117193 
L 337.160573 293.138711 
L 343.59865 294.837895 
L 350.036726 296.631338 
L 356.474802 302.356741 
L 362.912879 304.229387 
L 369.350955 310.111642 
L 375.789032 309.810492 
L 382.227108 314.325626 
L 388.665184 317.501872 
L 395.103261 317.321403 
L 401.541337 311.573596 
L 407.979414 305.591943 
L 414.41749 302.564681 
L 420.855567 302.711074 
L 427.293643 304.372257 
L 433.731719 312.712058 
L 440.169796 316.817754 
L 446.607872 324.851098 
L 453.045949 329.404285 
L 459.484025 333.905788 
L 465.922101 334.114075 
L 472.360178 334.93022 
L 478.798254 334.992265 
L 485.236331 335.073302 
L 491.674407 333.931336 
L 498.112484 333.513825 
L 504.55056 332.939502 
L 510.988636 330.687207 
" style="fill:none;stroke:#4dffaa;stroke-dasharray:9.6,2.4,1.5,2.4;stroke-dashoffset:0;stroke-opacity:0.7;stroke-width:1.5;"/>
   </g>
   <g id="line2d_25">
    <path clip-path="url(#pb7c980ad2f)" d="M 66.761364 37.564089 
L 73.19944 37.564089 
L 79.637516 37.564089 
L 86.075593 39.524858 
L 92.513669 39.524858 
L 98.951746 39.851653 
L 105.389822 40.505243 
L 111.827899 41.158833 
L 118.265975 41.485628 
L 124.704051 41.812423 
L 131.142128 41.812423 
L 137.580204 43.119602 
L 144.018281 43.119602 
L 150.456357 43.119602 
L 156.894433 44.099987 
L 163.33251 46.059798 
L 169.770586 46.059798 
L 176.208663 46.386593 
L 182.646739 46.713388 
L 189.084816 46.713388 
L 195.522892 48.020568 
L 201.960968 48.674158 
L 208.399045 51.94019 
L 214.837121 59.126803 
L 221.275198 59.45264 
L 227.713274 59.779435 
L 234.15135 61.739246 
L 240.589427 61.739246 
L 247.027503 62.718672 
L 253.46558 63.045467 
L 259.903656 63.372262 
L 266.341733 64.677525 
L 272.779809 76.757437 
L 279.217885 79.042127 
L 285.655962 130.570306 
L 292.094038 137.738711 
L 298.532115 162.488874 
L 304.970191 255.782595 
L 311.408267 266.816955 
L 317.846344 272.008298 
L 324.28442 274.603491 
L 330.722497 291.468409 
L 337.160573 293.737765 
L 343.59865 295.034403 
L 350.036726 296.979839 
L 356.474802 302.16639 
L 362.912879 303.46207 
L 369.350955 310.592141 
L 375.789032 310.916061 
L 382.227108 313.184458 
L 388.665184 317.720295 
L 395.103261 319.339895 
L 401.541337 322.255174 
L 407.979414 326.466132 
L 414.41749 329.057491 
L 420.855567 329.705331 
L 427.293643 331.323972 
L 433.731719 333.267492 
L 440.169796 333.914373 
L 446.607872 334.238293 
L 453.045949 334.562213 
L 459.484025 335.533973 
L 465.922101 335.533973 
L 472.360178 335.533973 
L 478.798254 335.210053 
L 485.236331 335.210053 
L 491.674407 335.857893 
L 498.112484 335.533973 
L 504.55056 335.857893 
L 510.988636 335.210053 
" style="fill:none;stroke:#4dffaa;stroke-linecap:square;stroke-opacity:0.7;stroke-width:1.5;"/>
   </g>
   <g id="line2d_26">
    <path clip-path="url(#pb7c980ad2f)" d="M 66.761364 34.654223 
L 73.19944 30.827354 
L 79.637516 30.383306 
L 86.075593 32.659691 
L 92.513669 32.874819 
L 98.951746 34.837034 
L 105.389822 34.481377 
L 111.827899 35.384583 
L 118.265975 35.406139 
L 124.704051 35.232084 
L 131.142128 36.008806 
L 137.580204 36.194271 
L 144.018281 35.844915 
L 150.456357 36.218626 
L 156.894433 37.479439 
L 163.33251 37.889852 
L 169.770586 38.476127 
L 176.208663 38.526424 
L 182.646739 38.650742 
L 189.084816 39.053428 
L 195.522892 39.944719 
L 201.960968 40.122421 
L 208.399045 41.050776 
L 214.837121 43.160092 
L 221.275198 43.192806 
L 227.713274 43.576247 
L 234.15135 44.60693 
L 240.589427 44.106429 
L 247.027503 44.206067 
L 253.46558 44.110346 
L 259.903656 44.483588 
L 266.341733 45.277714 
L 272.779809 51.602612 
L 279.217885 51.676361 
L 285.655962 57.269292 
L 292.094038 58.719614 
L 298.532115 58.807229 
L 304.970191 68.433634 
L 311.408267 73.285589 
L 317.846344 77.501532 
L 324.28442 79.908247 
L 330.722497 132.956032 
L 337.160573 144.754112 
L 343.59865 150.796001 
L 350.036726 168.061539 
L 356.474802 205.829083 
L 362.912879 215.625482 
L 369.350955 255.811963 
L 375.789032 259.09567 
L 382.227108 267.832816 
L 388.665184 283.895475 
L 395.103261 292.461436 
L 401.541337 300.159148 
L 407.979414 310.451277 
L 414.41749 314.814925 
L 420.855567 317.173939 
L 427.293643 320.622146 
L 433.731719 328.986621 
L 440.169796 332.682774 
L 446.607872 338.881615 
L 453.045949 342.91293 
L 459.484025 348.997113 
L 465.922101 350.10293 
L 472.360178 351.881563 
L 478.798254 351.934017 
L 485.236331 360.156499 
L 491.674407 364.06826 
L 498.112484 365.235217 
L 504.55056 366.381579 
L 510.988636 372.954545 
" style="fill:none;stroke:#aaff4d;stroke-dasharray:9.6,2.4,1.5,2.4;stroke-dashoffset:0;stroke-opacity:0.7;stroke-width:1.5;"/>
   </g>
   <g id="line2d_27">
    <path clip-path="url(#pb7c980ad2f)" d="M 66.761364 31.027232 
L 73.19944 31.680822 
L 79.637516 32.007617 
L 86.075593 32.661206 
L 92.513669 33.314796 
L 98.951746 33.64255 
L 105.389822 34.296139 
L 111.827899 35.276524 
L 118.265975 35.603319 
L 124.704051 35.603319 
L 131.142128 36.256909 
L 137.580204 36.910499 
L 144.018281 36.910499 
L 150.456357 37.237294 
L 156.894433 37.890883 
L 163.33251 38.544473 
L 169.770586 38.544473 
L 176.208663 38.871268 
L 182.646739 39.198063 
L 189.084816 39.198063 
L 195.522892 39.524858 
L 201.960968 40.178448 
L 208.399045 40.505243 
L 214.837121 43.773192 
L 221.275198 43.773192 
L 227.713274 43.773192 
L 234.15135 44.099987 
L 240.589427 43.446397 
L 247.027503 44.426782 
L 253.46558 45.733003 
L 259.903656 45.406208 
L 266.341733 46.386593 
L 272.779809 51.94019 
L 279.217885 51.614353 
L 285.655962 56.840197 
L 292.094038 57.819624 
L 298.532115 59.45264 
L 304.970191 67.943558 
L 311.408267 70.881837 
L 317.846344 75.778011 
L 324.28442 77.410069 
L 330.722497 134.154509 
L 337.160573 145.881751 
L 343.59865 152.069771 
L 350.036726 169.975449 
L 356.474802 205.106382 
L 362.912879 214.532643 
L 369.350955 256.756271 
L 375.789032 260.326099 
L 382.227108 269.088228 
L 388.665184 284.334504 
L 395.103261 291.792329 
L 401.541337 298.924316 
L 407.979414 307.675904 
L 414.41749 312.536619 
L 420.855567 312.860538 
L 427.293643 315.452856 
L 433.731719 321.283414 
L 440.169796 322.579094 
L 446.607872 323.226933 
L 453.045949 324.522613 
L 459.484025 327.113972 
L 465.922101 326.466132 
L 472.360178 329.057491 
L 478.798254 328.085732 
L 485.236331 329.705331 
L 491.674407 331.323972 
L 498.112484 330.352213 
L 504.55056 331.323972 
L 510.988636 332.619652 
" style="fill:none;stroke:#aaff4d;stroke-linecap:square;stroke-opacity:0.7;stroke-width:1.5;"/>
   </g>
   <g id="line2d_28">
    <path clip-path="url(#pb7c980ad2f)" d="M 66.761364 30.83188 
L 73.19944 30.835054 
L 79.637516 30.56183 
L 86.075593 30.407032 
L 92.513669 30.488162 
L 98.951746 30.968353 
L 105.389822 31.198283 
L 111.827899 31.671394 
L 118.265975 31.937033 
L 124.704051 32.088292 
L 131.142128 31.932203 
L 137.580204 32.258259 
L 144.018281 32.485486 
L 150.456357 32.600006 
L 156.894433 32.607591 
L 163.33251 34.135308 
L 169.770586 33.755149 
L 176.208663 33.854953 
L 182.646739 34.152605 
L 189.084816 34.270979 
L 195.522892 35.315018 
L 201.960968 35.848685 
L 208.399045 36.829414 
L 214.837121 37.851745 
L 221.275198 37.963371 
L 227.713274 38.030117 
L 234.15135 38.437145 
L 240.589427 38.608211 
L 247.027503 38.825273 
L 253.46558 39.320964 
L 259.903656 39.041934 
L 266.341733 39.897105 
L 272.779809 41.680715 
L 279.217885 42.012733 
L 285.655962 43.400072 
L 292.094038 43.380352 
L 298.532115 43.983275 
L 304.970191 48.239429 
L 311.408267 49.750739 
L 317.846344 51.263217 
L 324.28442 51.315298 
L 330.722497 56.22991 
L 337.160573 56.5764 
L 343.59865 57.319684 
L 350.036726 57.944891 
L 356.474802 60.450617 
L 362.912879 61.260297 
L 369.350955 68.698646 
L 375.789032 69.458808 
L 382.227108 75.860929 
L 388.665184 96.821015 
L 395.103261 119.678953 
L 401.541337 160.593341 
L 407.979414 213.859452 
L 414.41749 236.304938 
L 420.855567 244.93623 
L 427.293643 261.727282 
L 433.731719 292.204749 
L 440.169796 302.286837 
L 446.607872 319.261166 
L 453.045949 327.068339 
L 459.484025 336.809697 
L 465.922101 338.328277 
L 472.360178 339.640114 
L 478.798254 340.026816 
L 485.236331 343.976936 
L 491.674407 344.905649 
L 498.112484 345.359354 
L 504.55056 345.667951 
L 510.988636 346.987978 
" style="fill:none;stroke:#ffe600;stroke-dasharray:9.6,2.4,1.5,2.4;stroke-dashoffset:0;stroke-opacity:0.7;stroke-width:1.5;"/>
   </g>
   <g id="line2d_29">
    <path clip-path="url(#pb7c980ad2f)" d="M 66.761364 30.700437 
L 73.19944 31.027232 
L 79.637516 30.373642 
L 86.075593 30.700437 
L 92.513669 31.027232 
L 98.951746 31.027232 
L 105.389822 31.027232 
L 111.827899 31.354027 
L 118.265975 31.354027 
L 124.704051 31.354027 
L 131.142128 31.680822 
L 137.580204 31.680822 
L 144.018281 31.680822 
L 150.456357 31.680822 
L 156.894433 32.988001 
L 163.33251 33.64255 
L 169.770586 33.969344 
L 176.208663 33.64255 
L 182.646739 33.969344 
L 189.084816 33.969344 
L 195.522892 34.949729 
L 201.960968 34.296139 
L 208.399045 35.930114 
L 214.837121 37.890883 
L 221.275198 38.217678 
L 227.713274 38.544473 
L 234.15135 38.544473 
L 240.589427 38.871268 
L 247.027503 38.871268 
L 253.46558 39.524858 
L 259.903656 38.871268 
L 266.341733 39.851653 
L 272.779809 41.158833 
L 279.217885 41.485628 
L 285.655962 43.773192 
L 292.094038 43.119602 
L 298.532115 43.773192 
L 304.970191 47.693773 
L 311.408267 49.326789 
L 317.846344 50.307174 
L 324.28442 50.633969 
L 330.722497 56.186607 
L 337.160573 57.166992 
L 343.59865 57.166992 
L 350.036726 58.800008 
L 356.474802 61.085656 
L 362.912879 62.066041 
L 369.350955 67.943558 
L 375.789032 68.596189 
L 382.227108 72.513895 
L 388.665184 97.967482 
L 395.103261 125.030126 
L 401.541337 178.110822 
L 407.979414 239.873145 
L 414.41749 262.59833 
L 420.855567 269.737026 
L 427.293643 279.145078 
L 433.731719 294.061685 
L 440.169796 298.924316 
L 446.607872 304.434788 
L 453.045949 307.675904 
L 459.484025 312.212699 
L 465.922101 313.508378 
L 472.360178 314.480138 
L 478.798254 314.804058 
L 485.236331 317.720295 
L 491.674407 318.692055 
L 498.112484 319.015975 
L 504.55056 319.339895 
L 510.988636 320.959494 
" style="fill:none;stroke:#ffe600;stroke-linecap:square;stroke-opacity:0.7;stroke-width:1.5;"/>
   </g>
   <g id="line2d_30">
    <path clip-path="url(#pb7c980ad2f)" d="M 66.761364 28.500379 
L 73.19944 28.681449 
L 79.637516 29.409199 
L 86.075593 29.130471 
L 92.513669 28.922908 
L 98.951746 29.170122 
L 105.389822 29.518257 
L 111.827899 29.594442 
L 118.265975 29.744063 
L 124.704051 30.072403 
L 131.142128 29.997081 
L 137.580204 30.067303 
L 144.018281 30.258398 
L 150.456357 30.185922 
L 156.894433 29.623237 
L 163.33251 29.602644 
L 169.770586 29.617321 
L 176.208663 29.695042 
L 182.646739 29.899487 
L 189.084816 29.945998 
L 195.522892 30.128107 
L 201.960968 30.375801 
L 208.399045 30.954938 
L 214.837121 31.212801 
L 221.275198 31.291513 
L 227.713274 31.378538 
L 234.15135 31.285981 
L 240.589427 31.360855 
L 247.027503 31.614001 
L 253.46558 32.01138 
L 259.903656 32.180779 
L 266.341733 33.212551 
L 272.779809 35.032573 
L 279.217885 35.310949 
L 285.655962 36.65624 
L 292.094038 36.759478 
L 298.532115 37.383415 
L 304.970191 38.885282 
L 311.408267 39.836439 
L 317.846344 40.275229 
L 324.28442 40.383359 
L 330.722497 41.638331 
L 337.160573 42.101087 
L 343.59865 42.19681 
L 350.036726 42.532921 
L 356.474802 43.171695 
L 362.912879 43.768995 
L 369.350955 46.733748 
L 375.789032 46.889045 
L 382.227108 48.358407 
L 388.665184 51.968409 
L 395.103261 54.31698 
L 401.541337 58.661496 
L 407.979414 63.749207 
L 414.41749 66.781576 
L 420.855567 68.40988 
L 427.293643 70.560977 
L 433.731719 76.63988 
L 440.169796 79.624204 
L 446.607872 86.368294 
L 453.045949 89.503805 
L 459.484025 96.732252 
L 465.922101 96.943429 
L 472.360178 98.478296 
L 478.798254 99.474014 
L 485.236331 105.89237 
L 491.674407 109.350561 
L 498.112484 110.62408 
L 504.55056 112.383873 
L 510.988636 117.339998 
" style="fill:none;stroke:#ff7a00;stroke-dasharray:9.6,2.4,1.5,2.4;stroke-dashoffset:0;stroke-opacity:0.7;stroke-width:1.5;"/>
   </g>
   <g id="line2d_31">
    <path clip-path="url(#pb7c980ad2f)" d="M 66.761364 29.065504 
L 73.19944 29.065504 
L 79.637516 29.065504 
L 86.075593 29.392299 
L 92.513669 29.065504 
L 98.951746 29.392299 
L 105.389822 29.392299 
L 111.827899 29.392299 
L 118.265975 29.720052 
L 124.704051 29.720052 
L 131.142128 29.720052 
L 137.580204 29.720052 
L 144.018281 29.720052 
L 150.456357 30.046847 
L 156.894433 30.046847 
L 163.33251 30.373642 
L 169.770586 30.373642 
L 176.208663 30.373642 
L 182.646739 30.373642 
L 189.084816 30.373642 
L 195.522892 30.373642 
L 201.960968 30.373642 
L 208.399045 31.027232 
L 214.837121 31.354027 
L 221.275198 31.680822 
L 227.713274 31.680822 
L 234.15135 31.680822 
L 240.589427 32.334411 
L 247.027503 32.007617 
L 253.46558 32.007617 
L 259.903656 32.334411 
L 266.341733 32.988001 
L 272.779809 34.949729 
L 279.217885 35.276524 
L 285.655962 36.583704 
L 292.094038 36.910499 
L 298.532115 37.237294 
L 304.970191 39.524858 
L 311.408267 39.198063 
L 317.846344 40.832038 
L 324.28442 39.851653 
L 330.722497 42.466012 
L 337.160573 42.139217 
L 343.59865 43.119602 
L 350.036726 42.466012 
L 356.474802 43.119602 
L 362.912879 43.773192 
L 369.350955 45.733003 
L 375.789032 46.713388 
L 382.227108 48.347363 
L 388.665184 51.614353 
L 395.103261 54.553591 
L 401.541337 58.473213 
L 407.979414 64.024894 
L 414.41749 69.575616 
L 420.855567 74.472748 
L 427.293643 87.527294 
L 433.731719 136.761201 
L 440.169796 160.535772 
L 446.607872 205.43126 
L 453.045949 228.505282 
L 459.484025 256.756271 
L 465.922101 261.624653 
L 472.360178 263.895926 
L 478.798254 267.465753 
L 485.236331 279.468998 
L 491.674407 283.685706 
L 498.112484 285.631142 
L 504.55056 286.60386 
L 510.988636 292.441127 
" style="fill:none;stroke:#ff7a00;stroke-linecap:square;stroke-opacity:0.7;stroke-width:1.5;"/>
   </g>
   <g id="line2d_32">
    <path clip-path="url(#pb7c980ad2f)" d="M 66.761364 28.477878 
L 73.19944 28.045455 
L 79.637516 28.382438 
L 86.075593 28.51278 
L 92.513669 28.352601 
L 98.951746 28.37719 
L 105.389822 28.454151 
L 111.827899 28.443214 
L 118.265975 28.423488 
L 124.704051 28.63057 
L 131.142128 28.626937 
L 137.580204 28.958745 
L 144.018281 28.771298 
L 150.456357 28.920338 
L 156.894433 28.85314 
L 163.33251 28.919054 
L 169.770586 28.978747 
L 176.208663 29.087656 
L 182.646739 29.02121 
L 189.084816 29.176673 
L 195.522892 29.133715 
L 201.960968 29.176856 
L 208.399045 29.505197 
L 214.837121 29.600233 
L 221.275198 29.587589 
L 227.713274 29.589736 
L 234.15135 29.748778 
L 240.589427 29.794103 
L 247.027503 29.87077 
L 253.46558 30.022435 
L 259.903656 30.078311 
L 266.341733 30.442637 
L 272.779809 30.790979 
L 279.217885 30.722092 
L 285.655962 31.208832 
L 292.094038 31.268966 
L 298.532115 31.736328 
L 304.970191 33.89714 
L 311.408267 34.250364 
L 317.846344 34.539417 
L 324.28442 34.872693 
L 330.722497 36.073312 
L 337.160573 36.418003 
L 343.59865 36.442574 
L 350.036726 37.236148 
L 356.474802 38.466806 
L 362.912879 38.827223 
L 369.350955 41.348232 
L 375.789032 41.669985 
L 382.227108 42.286901 
L 388.665184 43.024599 
L 395.103261 42.83627 
L 401.541337 41.368087 
L 407.979414 39.752019 
L 414.41749 40.084525 
L 420.855567 40.567246 
L 427.293643 40.637546 
L 433.731719 43.393823 
L 440.169796 45.578491 
L 446.607872 50.466955 
L 453.045949 52.811876 
L 459.484025 58.327477 
L 465.922101 58.613686 
L 472.360178 59.982668 
L 478.798254 60.633862 
L 485.236331 65.990129 
L 491.674407 68.950874 
L 498.112484 69.890873 
L 504.55056 71.264791 
L 510.988636 75.627485 
" style="fill:none;stroke:#ff1300;stroke-dasharray:9.6,2.4,1.5,2.4;stroke-dashoffset:0;stroke-opacity:0.7;stroke-width:1.5;"/>
   </g>
   <g id="line2d_33">
    <path clip-path="url(#pb7c980ad2f)" d="M 66.761364 28.085119 
L 73.19944 28.411914 
L 79.637516 28.411914 
L 86.075593 28.738709 
L 92.513669 28.411914 
L 98.951746 28.738709 
L 105.389822 28.411914 
L 111.827899 29.065504 
L 118.265975 28.738709 
L 124.704051 29.065504 
L 131.142128 29.065504 
L 137.580204 29.065504 
L 144.018281 28.738709 
L 150.456357 29.392299 
L 156.894433 28.411914 
L 163.33251 29.392299 
L 169.770586 28.738709 
L 176.208663 29.392299 
L 182.646739 29.065504 
L 189.084816 29.392299 
L 195.522892 29.392299 
L 201.960968 30.046847 
L 208.399045 29.392299 
L 214.837121 30.046847 
L 221.275198 30.373642 
L 227.713274 30.046847 
L 234.15135 30.046847 
L 240.589427 30.046847 
L 247.027503 29.720052 
L 253.46558 30.046847 
L 259.903656 29.720052 
L 266.341733 30.700437 
L 272.779809 31.027232 
L 279.217885 30.700437 
L 285.655962 31.680822 
L 292.094038 31.354027 
L 298.532115 31.680822 
L 304.970191 33.64255 
L 311.408267 33.969344 
L 317.846344 34.949729 
L 324.28442 34.296139 
L 330.722497 36.583704 
L 337.160573 37.237294 
L 343.59865 36.583704 
L 350.036726 37.890883 
L 356.474802 39.524858 
L 362.912879 38.871268 
L 369.350955 40.505243 
L 375.789032 41.485628 
L 382.227108 41.158833 
L 388.665184 43.119602 
L 395.103261 43.773192 
L 401.541337 45.080372 
L 407.979414 48.020568 
L 414.41749 49.653584 
L 420.855567 50.960764 
L 427.293643 52.920575 
L 433.731719 56.840197 
L 440.169796 58.473213 
L 446.607872 61.412451 
L 453.045949 64.351689 
L 459.484025 71.861263 
L 465.922101 74.145953 
L 472.360178 77.736864 
L 478.798254 79.694758 
L 485.236331 104.164127 
L 491.674407 119.163151 
L 498.112484 125.681799 
L 504.55056 129.918633 
L 510.988636 158.58171 
" style="fill:none;stroke:#ff1300;stroke-linecap:square;stroke-opacity:0.7;stroke-width:1.5;"/>
   </g>
   <g id="line2d_34">
    <path clip-path="url(#pb7c980ad2f)" d="M 66.761364 29.537274 
L 73.19944 29.418231 
L 79.637516 29.511907 
L 86.075593 29.771361 
L 92.513669 29.777607 
L 98.951746 29.881215 
L 105.389822 29.961985 
L 111.827899 29.996329 
L 118.265975 30.025829 
L 124.704051 30.103565 
L 131.142128 30.084731 
L 137.580204 30.178512 
L 144.018281 30.156639 
L 150.456357 30.181196 
L 156.894433 30.110539 
L 163.33251 30.173686 
L 169.770586 30.164473 
L 176.208663 30.191322 
L 182.646739 30.198168 
L 189.084816 30.239571 
L 195.522892 30.288414 
L 201.960968 30.332091 
L 208.399045 30.463952 
L 214.837121 30.455058 
L 221.275198 30.458085 
L 227.713274 30.452519 
L 234.15135 30.453312 
L 240.589427 30.473673 
L 247.027503 30.502274 
L 253.46558 30.572397 
L 259.903656 30.570363 
L 266.341733 30.717302 
L 272.779809 30.978135 
L 279.217885 31.00135 
L 285.655962 31.288117 
L 292.094038 31.31737 
L 298.532115 31.457912 
L 304.970191 31.879239 
L 311.408267 32.027208 
L 317.846344 32.152428 
L 324.28442 32.197809 
L 330.722497 32.832156 
L 337.160573 32.974052 
L 343.59865 33.063549 
L 350.036726 33.300074 
L 356.474802 33.87909 
L 362.912879 34.094467 
L 369.350955 35.389894 
L 375.789032 35.507906 
L 382.227108 36.157735 
L 388.665184 37.799667 
L 395.103261 39.218417 
L 401.541337 41.473666 
L 407.979414 44.379719 
L 414.41749 45.81941 
L 420.855567 46.437236 
L 427.293643 47.441336 
L 433.731719 49.538975 
L 440.169796 50.354834 
L 446.607872 51.818008 
L 453.045949 52.429455 
L 459.484025 53.886743 
L 465.922101 53.939063 
L 472.360178 54.199479 
L 478.798254 54.370737 
L 485.236331 55.811338 
L 491.674407 56.616445 
L 498.112484 56.898285 
L 504.55056 57.318799 
L 510.988636 58.463427 
" style="fill:none;stroke:#800000;stroke-dasharray:9.6,2.4,1.5,2.4;stroke-dashoffset:0;stroke-opacity:0.7;stroke-width:1.5;"/>
   </g>
   <g id="line2d_35">
    <path clip-path="url(#pb7c980ad2f)" d="M 66.761364 29.392299 
L 73.19944 29.720052 
L 79.637516 29.720052 
L 86.075593 29.392299 
L 92.513669 29.392299 
L 98.951746 30.046847 
L 105.389822 29.720052 
L 111.827899 30.373642 
L 118.265975 30.046847 
L 124.704051 30.046847 
L 131.142128 30.046847 
L 137.580204 30.373642 
L 144.018281 30.046847 
L 150.456357 29.720052 
L 156.894433 30.373642 
L 163.33251 30.373642 
L 169.770586 30.046847 
L 176.208663 30.373642 
L 182.646739 30.700437 
L 189.084816 30.373642 
L 195.522892 30.700437 
L 201.960968 30.700437 
L 208.399045 30.373642 
L 214.837121 30.700437 
L 221.275198 30.373642 
L 227.713274 30.700437 
L 234.15135 30.373642 
L 240.589427 30.373642 
L 247.027503 30.700437 
L 253.46558 30.700437 
L 259.903656 30.700437 
L 266.341733 30.700437 
L 272.779809 30.700437 
L 279.217885 31.027232 
L 285.655962 31.354027 
L 292.094038 31.027232 
L 298.532115 31.680822 
L 304.970191 32.007617 
L 311.408267 32.007617 
L 317.846344 32.661206 
L 324.28442 32.334411 
L 330.722497 32.661206 
L 337.160573 32.661206 
L 343.59865 32.988001 
L 350.036726 33.314796 
L 356.474802 33.64255 
L 362.912879 33.969344 
L 369.350955 35.276524 
L 375.789032 35.603319 
L 382.227108 36.256909 
L 388.665184 37.890883 
L 395.103261 38.871268 
L 401.541337 40.505243 
L 407.979414 41.812423 
L 414.41749 43.119602 
L 420.855567 43.446397 
L 427.293643 44.426782 
L 433.731719 45.733003 
L 440.169796 46.386593 
L 446.607872 47.693773 
L 453.045949 49.000952 
L 459.484025 51.287559 
L 465.922101 51.614353 
L 472.360178 52.266985 
L 478.798254 52.59378 
L 485.236331 54.880386 
L 491.674407 56.186607 
L 498.112484 55.860771 
L 504.55056 56.513402 
L 510.988636 58.473213 
" style="fill:none;stroke:#800000;stroke-linecap:square;stroke-opacity:0.7;stroke-width:1.5;"/>
   </g>
   <g id="patch_3">
    <path d="M 44.55 390.2 
L 44.55 10.8 
" style="fill:none;stroke:#000000;stroke-linecap:square;stroke-linejoin:miter;stroke-width:0.8;"/>
   </g>
   <g id="patch_4">
    <path d="M 533.2 390.2 
L 533.2 10.8 
" style="fill:none;stroke:#000000;stroke-linecap:square;stroke-linejoin:miter;stroke-width:0.8;"/>
   </g>
   <g id="patch_5">
    <path d="M 44.55 390.2 
L 533.2 390.2 
" style="fill:none;stroke:#000000;stroke-linecap:square;stroke-linejoin:miter;stroke-width:0.8;"/>
   </g>
   <g id="patch_6">
    <path d="M 44.55 10.8 
L 533.2 10.8 
" style="fill:none;stroke:#000000;stroke-linecap:square;stroke-linejoin:miter;stroke-width:0.8;"/>
   </g>
   <g id="legend_1">
    <g id="patch_7">
     <path d="M 540.2 312.3625 
L 635.439063 312.3625 
Q 637.439063 312.3625 637.439063 310.3625 
L 637.439063 17.8 
Q 637.439063 15.8 635.439063 15.8 
L 540.2 15.8 
Q 538.2 15.8 538.2 17.8 
L 538.2 310.3625 
Q 538.2 312.3625 540.2 312.3625 
z
" style="fill:#ffffff;opacity:0.8;stroke:#cccccc;stroke-linejoin:miter;"/>
    </g>
    <g id="line2d_36">
     <path d="M 542.2 23.898438 
L 562.2 23.898438 
" style="fill:none;stroke:#000080;stroke-dasharray:9.6,2.4,1.5,2.4;stroke-dashoffset:0;stroke-opacity:0.7;stroke-width:1.5;"/>
    </g>
    <g id="line2d_37"/>
    <g id="text_18">
     <!-- Pred Layer 0 -->
     <defs>
      <path d="M 19.671875 64.796875 
L 19.671875 37.40625 
L 32.078125 37.40625 
Q 38.96875 37.40625 42.71875 40.96875 
Q 46.484375 44.53125 46.484375 51.125 
Q 46.484375 57.671875 42.71875 61.234375 
Q 38.96875 64.796875 32.078125 64.796875 
z
M 9.8125 72.90625 
L 32.078125 72.90625 
Q 44.34375 72.90625 50.609375 67.359375 
Q 56.890625 61.8125 56.890625 51.125 
Q 56.890625 40.328125 50.609375 34.8125 
Q 44.34375 29.296875 32.078125 29.296875 
L 19.671875 29.296875 
L 19.671875 0 
L 9.8125 0 
z
" id="DejaVuSans-80"/>
      <path d="M 9.8125 72.90625 
L 19.671875 72.90625 
L 19.671875 8.296875 
L 55.171875 8.296875 
L 55.171875 0 
L 9.8125 0 
z
" id="DejaVuSans-76"/>
      <path d="M 32.171875 -5.078125 
Q 28.375 -14.84375 24.75 -17.8125 
Q 21.140625 -20.796875 15.09375 -20.796875 
L 7.90625 -20.796875 
L 7.90625 -13.28125 
L 13.1875 -13.28125 
Q 16.890625 -13.28125 18.9375 -11.515625 
Q 21 -9.765625 23.484375 -3.21875 
L 25.09375 0.875 
L 2.984375 54.6875 
L 12.5 54.6875 
L 29.59375 11.921875 
L 46.6875 54.6875 
L 56.203125 54.6875 
z
" id="DejaVuSans-121"/>
     </defs>
     <g transform="translate(570.2 27.398438)scale(0.1 -0.1)">
      <use xlink:href="#DejaVuSans-80"/>
      <use x="60.287109" xlink:href="#DejaVuSans-114"/>
      <use x="101.369141" xlink:href="#DejaVuSans-101"/>
      <use x="162.892578" xlink:href="#DejaVuSans-100"/>
      <use x="226.369141" xlink:href="#DejaVuSans-32"/>
      <use x="258.15625" xlink:href="#DejaVuSans-76"/>
      <use x="313.869141" xlink:href="#DejaVuSans-97"/>
      <use x="375.148438" xlink:href="#DejaVuSans-121"/>
      <use x="434.328125" xlink:href="#DejaVuSans-101"/>
      <use x="495.851562" xlink:href="#DejaVuSans-114"/>
      <use x="536.964844" xlink:href="#DejaVuSans-32"/>
      <use x="568.751953" xlink:href="#DejaVuSans-48"/>
     </g>
    </g>
    <g id="line2d_38">
     <path d="M 542.2 38.576563 
L 562.2 38.576563 
" style="fill:none;stroke:#000080;stroke-linecap:square;stroke-opacity:0.7;stroke-width:1.5;"/>
    </g>
    <g id="line2d_39"/>
    <g id="text_19">
     <!-- Test Layer 0 -->
     <defs>
      <path d="M 44.28125 53.078125 
L 44.28125 44.578125 
Q 40.484375 46.53125 36.375 47.5 
Q 32.28125 48.484375 27.875 48.484375 
Q 21.1875 48.484375 17.84375 46.4375 
Q 14.5 44.390625 14.5 40.28125 
Q 14.5 37.15625 16.890625 35.375 
Q 19.28125 33.59375 26.515625 31.984375 
L 29.59375 31.296875 
Q 39.15625 29.25 43.1875 25.515625 
Q 47.21875 21.78125 47.21875 15.09375 
Q 47.21875 7.46875 41.1875 3.015625 
Q 35.15625 -1.421875 24.609375 -1.421875 
Q 20.21875 -1.421875 15.453125 -0.5625 
Q 10.6875 0.296875 5.421875 2 
L 5.421875 11.28125 
Q 10.40625 8.6875 15.234375 7.390625 
Q 20.0625 6.109375 24.8125 6.109375 
Q 31.15625 6.109375 34.5625 8.28125 
Q 37.984375 10.453125 37.984375 14.40625 
Q 37.984375 18.0625 35.515625 20.015625 
Q 33.0625 21.96875 24.703125 23.78125 
L 21.578125 24.515625 
Q 13.234375 26.265625 9.515625 29.90625 
Q 5.8125 33.546875 5.8125 39.890625 
Q 5.8125 47.609375 11.28125 51.796875 
Q 16.75 56 26.8125 56 
Q 31.78125 56 36.171875 55.265625 
Q 40.578125 54.546875 44.28125 53.078125 
z
" id="DejaVuSans-115"/>
     </defs>
     <g transform="translate(570.2 42.076563)scale(0.1 -0.1)">
      <use xlink:href="#DejaVuSans-84"/>
      <use x="60.818359" xlink:href="#DejaVuSans-101"/>
      <use x="122.341797" xlink:href="#DejaVuSans-115"/>
      <use x="174.441406" xlink:href="#DejaVuSans-116"/>
      <use x="213.650391" xlink:href="#DejaVuSans-32"/>
      <use x="245.4375" xlink:href="#DejaVuSans-76"/>
      <use x="301.150391" xlink:href="#DejaVuSans-97"/>
      <use x="362.429688" xlink:href="#DejaVuSans-121"/>
      <use x="421.609375" xlink:href="#DejaVuSans-101"/>
      <use x="483.132812" xlink:href="#DejaVuSans-114"/>
      <use x="524.246094" xlink:href="#DejaVuSans-32"/>
      <use x="556.033203" xlink:href="#DejaVuSans-48"/>
     </g>
    </g>
    <g id="line2d_40">
     <path d="M 542.2 53.254688 
L 562.2 53.254688 
" style="fill:none;stroke:#0000ff;stroke-dasharray:9.6,2.4,1.5,2.4;stroke-dashoffset:0;stroke-opacity:0.7;stroke-width:1.5;"/>
    </g>
    <g id="line2d_41"/>
    <g id="text_20">
     <!-- Pred Layer 1 -->
     <g transform="translate(570.2 56.754688)scale(0.1 -0.1)">
      <use xlink:href="#DejaVuSans-80"/>
      <use x="60.287109" xlink:href="#DejaVuSans-114"/>
      <use x="101.369141" xlink:href="#DejaVuSans-101"/>
      <use x="162.892578" xlink:href="#DejaVuSans-100"/>
      <use x="226.369141" xlink:href="#DejaVuSans-32"/>
      <use x="258.15625" xlink:href="#DejaVuSans-76"/>
      <use x="313.869141" xlink:href="#DejaVuSans-97"/>
      <use x="375.148438" xlink:href="#DejaVuSans-121"/>
      <use x="434.328125" xlink:href="#DejaVuSans-101"/>
      <use x="495.851562" xlink:href="#DejaVuSans-114"/>
      <use x="536.964844" xlink:href="#DejaVuSans-32"/>
      <use x="568.751953" xlink:href="#DejaVuSans-49"/>
     </g>
    </g>
    <g id="line2d_42">
     <path d="M 542.2 67.932813 
L 562.2 67.932813 
" style="fill:none;stroke:#0000ff;stroke-linecap:square;stroke-opacity:0.7;stroke-width:1.5;"/>
    </g>
    <g id="line2d_43"/>
    <g id="text_21">
     <!-- Test Layer 1 -->
     <g transform="translate(570.2 71.432813)scale(0.1 -0.1)">
      <use xlink:href="#DejaVuSans-84"/>
      <use x="60.818359" xlink:href="#DejaVuSans-101"/>
      <use x="122.341797" xlink:href="#DejaVuSans-115"/>
      <use x="174.441406" xlink:href="#DejaVuSans-116"/>
      <use x="213.650391" xlink:href="#DejaVuSans-32"/>
      <use x="245.4375" xlink:href="#DejaVuSans-76"/>
      <use x="301.150391" xlink:href="#DejaVuSans-97"/>
      <use x="362.429688" xlink:href="#DejaVuSans-121"/>
      <use x="421.609375" xlink:href="#DejaVuSans-101"/>
      <use x="483.132812" xlink:href="#DejaVuSans-114"/>
      <use x="524.246094" xlink:href="#DejaVuSans-32"/>
      <use x="556.033203" xlink:href="#DejaVuSans-49"/>
     </g>
    </g>
    <g id="line2d_44">
     <path d="M 542.2 82.610938 
L 562.2 82.610938 
" style="fill:none;stroke:#0060ff;stroke-dasharray:9.6,2.4,1.5,2.4;stroke-dashoffset:0;stroke-opacity:0.7;stroke-width:1.5;"/>
    </g>
    <g id="line2d_45"/>
    <g id="text_22">
     <!-- Pred Layer 2 -->
     <g transform="translate(570.2 86.110938)scale(0.1 -0.1)">
      <use xlink:href="#DejaVuSans-80"/>
      <use x="60.287109" xlink:href="#DejaVuSans-114"/>
      <use x="101.369141" xlink:href="#DejaVuSans-101"/>
      <use x="162.892578" xlink:href="#DejaVuSans-100"/>
      <use x="226.369141" xlink:href="#DejaVuSans-32"/>
      <use x="258.15625" xlink:href="#DejaVuSans-76"/>
      <use x="313.869141" xlink:href="#DejaVuSans-97"/>
      <use x="375.148438" xlink:href="#DejaVuSans-121"/>
      <use x="434.328125" xlink:href="#DejaVuSans-101"/>
      <use x="495.851562" xlink:href="#DejaVuSans-114"/>
      <use x="536.964844" xlink:href="#DejaVuSans-32"/>
      <use x="568.751953" xlink:href="#DejaVuSans-50"/>
     </g>
    </g>
    <g id="line2d_46">
     <path d="M 542.2 97.289062 
L 562.2 97.289062 
" style="fill:none;stroke:#0060ff;stroke-linecap:square;stroke-opacity:0.7;stroke-width:1.5;"/>
    </g>
    <g id="line2d_47"/>
    <g id="text_23">
     <!-- Test Layer 2 -->
     <g transform="translate(570.2 100.789062)scale(0.1 -0.1)">
      <use xlink:href="#DejaVuSans-84"/>
      <use x="60.818359" xlink:href="#DejaVuSans-101"/>
      <use x="122.341797" xlink:href="#DejaVuSans-115"/>
      <use x="174.441406" xlink:href="#DejaVuSans-116"/>
      <use x="213.650391" xlink:href="#DejaVuSans-32"/>
      <use x="245.4375" xlink:href="#DejaVuSans-76"/>
      <use x="301.150391" xlink:href="#DejaVuSans-97"/>
      <use x="362.429688" xlink:href="#DejaVuSans-121"/>
      <use x="421.609375" xlink:href="#DejaVuSans-101"/>
      <use x="483.132812" xlink:href="#DejaVuSans-114"/>
      <use x="524.246094" xlink:href="#DejaVuSans-32"/>
      <use x="556.033203" xlink:href="#DejaVuSans-50"/>
     </g>
    </g>
    <g id="line2d_48">
     <path d="M 542.2 111.967188 
L 562.2 111.967188 
" style="fill:none;stroke:#00d4ff;stroke-dasharray:9.6,2.4,1.5,2.4;stroke-dashoffset:0;stroke-opacity:0.7;stroke-width:1.5;"/>
    </g>
    <g id="line2d_49"/>
    <g id="text_24">
     <!-- Pred Layer 3 -->
     <g transform="translate(570.2 115.467188)scale(0.1 -0.1)">
      <use xlink:href="#DejaVuSans-80"/>
      <use x="60.287109" xlink:href="#DejaVuSans-114"/>
      <use x="101.369141" xlink:href="#DejaVuSans-101"/>
      <use x="162.892578" xlink:href="#DejaVuSans-100"/>
      <use x="226.369141" xlink:href="#DejaVuSans-32"/>
      <use x="258.15625" xlink:href="#DejaVuSans-76"/>
      <use x="313.869141" xlink:href="#DejaVuSans-97"/>
      <use x="375.148438" xlink:href="#DejaVuSans-121"/>
      <use x="434.328125" xlink:href="#DejaVuSans-101"/>
      <use x="495.851562" xlink:href="#DejaVuSans-114"/>
      <use x="536.964844" xlink:href="#DejaVuSans-32"/>
      <use x="568.751953" xlink:href="#DejaVuSans-51"/>
     </g>
    </g>
    <g id="line2d_50">
     <path d="M 542.2 126.645312 
L 562.2 126.645312 
" style="fill:none;stroke:#00d4ff;stroke-linecap:square;stroke-opacity:0.7;stroke-width:1.5;"/>
    </g>
    <g id="line2d_51"/>
    <g id="text_25">
     <!-- Test Layer 3 -->
     <g transform="translate(570.2 130.145312)scale(0.1 -0.1)">
      <use xlink:href="#DejaVuSans-84"/>
      <use x="60.818359" xlink:href="#DejaVuSans-101"/>
      <use x="122.341797" xlink:href="#DejaVuSans-115"/>
      <use x="174.441406" xlink:href="#DejaVuSans-116"/>
      <use x="213.650391" xlink:href="#DejaVuSans-32"/>
      <use x="245.4375" xlink:href="#DejaVuSans-76"/>
      <use x="301.150391" xlink:href="#DejaVuSans-97"/>
      <use x="362.429688" xlink:href="#DejaVuSans-121"/>
      <use x="421.609375" xlink:href="#DejaVuSans-101"/>
      <use x="483.132812" xlink:href="#DejaVuSans-114"/>
      <use x="524.246094" xlink:href="#DejaVuSans-32"/>
      <use x="556.033203" xlink:href="#DejaVuSans-51"/>
     </g>
    </g>
    <g id="line2d_52">
     <path d="M 542.2 141.323438 
L 562.2 141.323438 
" style="fill:none;stroke:#4dffaa;stroke-dasharray:9.6,2.4,1.5,2.4;stroke-dashoffset:0;stroke-opacity:0.7;stroke-width:1.5;"/>
    </g>
    <g id="line2d_53"/>
    <g id="text_26">
     <!-- Pred Layer 4 -->
     <g transform="translate(570.2 144.823438)scale(0.1 -0.1)">
      <use xlink:href="#DejaVuSans-80"/>
      <use x="60.287109" xlink:href="#DejaVuSans-114"/>
      <use x="101.369141" xlink:href="#DejaVuSans-101"/>
      <use x="162.892578" xlink:href="#DejaVuSans-100"/>
      <use x="226.369141" xlink:href="#DejaVuSans-32"/>
      <use x="258.15625" xlink:href="#DejaVuSans-76"/>
      <use x="313.869141" xlink:href="#DejaVuSans-97"/>
      <use x="375.148438" xlink:href="#DejaVuSans-121"/>
      <use x="434.328125" xlink:href="#DejaVuSans-101"/>
      <use x="495.851562" xlink:href="#DejaVuSans-114"/>
      <use x="536.964844" xlink:href="#DejaVuSans-32"/>
      <use x="568.751953" xlink:href="#DejaVuSans-52"/>
     </g>
    </g>
    <g id="line2d_54">
     <path d="M 542.2 156.001562 
L 562.2 156.001562 
" style="fill:none;stroke:#4dffaa;stroke-linecap:square;stroke-opacity:0.7;stroke-width:1.5;"/>
    </g>
    <g id="line2d_55"/>
    <g id="text_27">
     <!-- Test Layer 4 -->
     <g transform="translate(570.2 159.501562)scale(0.1 -0.1)">
      <use xlink:href="#DejaVuSans-84"/>
      <use x="60.818359" xlink:href="#DejaVuSans-101"/>
      <use x="122.341797" xlink:href="#DejaVuSans-115"/>
      <use x="174.441406" xlink:href="#DejaVuSans-116"/>
      <use x="213.650391" xlink:href="#DejaVuSans-32"/>
      <use x="245.4375" xlink:href="#DejaVuSans-76"/>
      <use x="301.150391" xlink:href="#DejaVuSans-97"/>
      <use x="362.429688" xlink:href="#DejaVuSans-121"/>
      <use x="421.609375" xlink:href="#DejaVuSans-101"/>
      <use x="483.132812" xlink:href="#DejaVuSans-114"/>
      <use x="524.246094" xlink:href="#DejaVuSans-32"/>
      <use x="556.033203" xlink:href="#DejaVuSans-52"/>
     </g>
    </g>
    <g id="line2d_56">
     <path d="M 542.2 170.679688 
L 562.2 170.679688 
" style="fill:none;stroke:#aaff4d;stroke-dasharray:9.6,2.4,1.5,2.4;stroke-dashoffset:0;stroke-opacity:0.7;stroke-width:1.5;"/>
    </g>
    <g id="line2d_57"/>
    <g id="text_28">
     <!-- Pred Layer 5 -->
     <g transform="translate(570.2 174.179688)scale(0.1 -0.1)">
      <use xlink:href="#DejaVuSans-80"/>
      <use x="60.287109" xlink:href="#DejaVuSans-114"/>
      <use x="101.369141" xlink:href="#DejaVuSans-101"/>
      <use x="162.892578" xlink:href="#DejaVuSans-100"/>
      <use x="226.369141" xlink:href="#DejaVuSans-32"/>
      <use x="258.15625" xlink:href="#DejaVuSans-76"/>
      <use x="313.869141" xlink:href="#DejaVuSans-97"/>
      <use x="375.148438" xlink:href="#DejaVuSans-121"/>
      <use x="434.328125" xlink:href="#DejaVuSans-101"/>
      <use x="495.851562" xlink:href="#DejaVuSans-114"/>
      <use x="536.964844" xlink:href="#DejaVuSans-32"/>
      <use x="568.751953" xlink:href="#DejaVuSans-53"/>
     </g>
    </g>
    <g id="line2d_58">
     <path d="M 542.2 185.357812 
L 562.2 185.357812 
" style="fill:none;stroke:#aaff4d;stroke-linecap:square;stroke-opacity:0.7;stroke-width:1.5;"/>
    </g>
    <g id="line2d_59"/>
    <g id="text_29">
     <!-- Test Layer 5 -->
     <g transform="translate(570.2 188.857812)scale(0.1 -0.1)">
      <use xlink:href="#DejaVuSans-84"/>
      <use x="60.818359" xlink:href="#DejaVuSans-101"/>
      <use x="122.341797" xlink:href="#DejaVuSans-115"/>
      <use x="174.441406" xlink:href="#DejaVuSans-116"/>
      <use x="213.650391" xlink:href="#DejaVuSans-32"/>
      <use x="245.4375" xlink:href="#DejaVuSans-76"/>
      <use x="301.150391" xlink:href="#DejaVuSans-97"/>
      <use x="362.429688" xlink:href="#DejaVuSans-121"/>
      <use x="421.609375" xlink:href="#DejaVuSans-101"/>
      <use x="483.132812" xlink:href="#DejaVuSans-114"/>
      <use x="524.246094" xlink:href="#DejaVuSans-32"/>
      <use x="556.033203" xlink:href="#DejaVuSans-53"/>
     </g>
    </g>
    <g id="line2d_60">
     <path d="M 542.2 200.035937 
L 562.2 200.035937 
" style="fill:none;stroke:#ffe600;stroke-dasharray:9.6,2.4,1.5,2.4;stroke-dashoffset:0;stroke-opacity:0.7;stroke-width:1.5;"/>
    </g>
    <g id="line2d_61"/>
    <g id="text_30">
     <!-- Pred Layer 6 -->
     <g transform="translate(570.2 203.535937)scale(0.1 -0.1)">
      <use xlink:href="#DejaVuSans-80"/>
      <use x="60.287109" xlink:href="#DejaVuSans-114"/>
      <use x="101.369141" xlink:href="#DejaVuSans-101"/>
      <use x="162.892578" xlink:href="#DejaVuSans-100"/>
      <use x="226.369141" xlink:href="#DejaVuSans-32"/>
      <use x="258.15625" xlink:href="#DejaVuSans-76"/>
      <use x="313.869141" xlink:href="#DejaVuSans-97"/>
      <use x="375.148438" xlink:href="#DejaVuSans-121"/>
      <use x="434.328125" xlink:href="#DejaVuSans-101"/>
      <use x="495.851562" xlink:href="#DejaVuSans-114"/>
      <use x="536.964844" xlink:href="#DejaVuSans-32"/>
      <use x="568.751953" xlink:href="#DejaVuSans-54"/>
     </g>
    </g>
    <g id="line2d_62">
     <path d="M 542.2 214.714062 
L 562.2 214.714062 
" style="fill:none;stroke:#ffe600;stroke-linecap:square;stroke-opacity:0.7;stroke-width:1.5;"/>
    </g>
    <g id="line2d_63"/>
    <g id="text_31">
     <!-- Test Layer 6 -->
     <g transform="translate(570.2 218.214062)scale(0.1 -0.1)">
      <use xlink:href="#DejaVuSans-84"/>
      <use x="60.818359" xlink:href="#DejaVuSans-101"/>
      <use x="122.341797" xlink:href="#DejaVuSans-115"/>
      <use x="174.441406" xlink:href="#DejaVuSans-116"/>
      <use x="213.650391" xlink:href="#DejaVuSans-32"/>
      <use x="245.4375" xlink:href="#DejaVuSans-76"/>
      <use x="301.150391" xlink:href="#DejaVuSans-97"/>
      <use x="362.429688" xlink:href="#DejaVuSans-121"/>
      <use x="421.609375" xlink:href="#DejaVuSans-101"/>
      <use x="483.132812" xlink:href="#DejaVuSans-114"/>
      <use x="524.246094" xlink:href="#DejaVuSans-32"/>
      <use x="556.033203" xlink:href="#DejaVuSans-54"/>
     </g>
    </g>
    <g id="line2d_64">
     <path d="M 542.2 229.392187 
L 562.2 229.392187 
" style="fill:none;stroke:#ff7a00;stroke-dasharray:9.6,2.4,1.5,2.4;stroke-dashoffset:0;stroke-opacity:0.7;stroke-width:1.5;"/>
    </g>
    <g id="line2d_65"/>
    <g id="text_32">
     <!-- Pred Layer 7 -->
     <g transform="translate(570.2 232.892187)scale(0.1 -0.1)">
      <use xlink:href="#DejaVuSans-80"/>
      <use x="60.287109" xlink:href="#DejaVuSans-114"/>
      <use x="101.369141" xlink:href="#DejaVuSans-101"/>
      <use x="162.892578" xlink:href="#DejaVuSans-100"/>
      <use x="226.369141" xlink:href="#DejaVuSans-32"/>
      <use x="258.15625" xlink:href="#DejaVuSans-76"/>
      <use x="313.869141" xlink:href="#DejaVuSans-97"/>
      <use x="375.148438" xlink:href="#DejaVuSans-121"/>
      <use x="434.328125" xlink:href="#DejaVuSans-101"/>
      <use x="495.851562" xlink:href="#DejaVuSans-114"/>
      <use x="536.964844" xlink:href="#DejaVuSans-32"/>
      <use x="568.751953" xlink:href="#DejaVuSans-55"/>
     </g>
    </g>
    <g id="line2d_66">
     <path d="M 542.2 244.070312 
L 562.2 244.070312 
" style="fill:none;stroke:#ff7a00;stroke-linecap:square;stroke-opacity:0.7;stroke-width:1.5;"/>
    </g>
    <g id="line2d_67"/>
    <g id="text_33">
     <!-- Test Layer 7 -->
     <g transform="translate(570.2 247.570312)scale(0.1 -0.1)">
      <use xlink:href="#DejaVuSans-84"/>
      <use x="60.818359" xlink:href="#DejaVuSans-101"/>
      <use x="122.341797" xlink:href="#DejaVuSans-115"/>
      <use x="174.441406" xlink:href="#DejaVuSans-116"/>
      <use x="213.650391" xlink:href="#DejaVuSans-32"/>
      <use x="245.4375" xlink:href="#DejaVuSans-76"/>
      <use x="301.150391" xlink:href="#DejaVuSans-97"/>
      <use x="362.429688" xlink:href="#DejaVuSans-121"/>
      <use x="421.609375" xlink:href="#DejaVuSans-101"/>
      <use x="483.132812" xlink:href="#DejaVuSans-114"/>
      <use x="524.246094" xlink:href="#DejaVuSans-32"/>
      <use x="556.033203" xlink:href="#DejaVuSans-55"/>
     </g>
    </g>
    <g id="line2d_68">
     <path d="M 542.2 258.748437 
L 562.2 258.748437 
" style="fill:none;stroke:#ff1300;stroke-dasharray:9.6,2.4,1.5,2.4;stroke-dashoffset:0;stroke-opacity:0.7;stroke-width:1.5;"/>
    </g>
    <g id="line2d_69"/>
    <g id="text_34">
     <!-- Pred Layer 8 -->
     <defs>
      <path d="M 31.78125 34.625 
Q 24.75 34.625 20.71875 30.859375 
Q 16.703125 27.09375 16.703125 20.515625 
Q 16.703125 13.921875 20.71875 10.15625 
Q 24.75 6.390625 31.78125 6.390625 
Q 38.8125 6.390625 42.859375 10.171875 
Q 46.921875 13.96875 46.921875 20.515625 
Q 46.921875 27.09375 42.890625 30.859375 
Q 38.875 34.625 31.78125 34.625 
z
M 21.921875 38.8125 
Q 15.578125 40.375 12.03125 44.71875 
Q 8.5 49.078125 8.5 55.328125 
Q 8.5 64.0625 14.71875 69.140625 
Q 20.953125 74.21875 31.78125 74.21875 
Q 42.671875 74.21875 48.875 69.140625 
Q 55.078125 64.0625 55.078125 55.328125 
Q 55.078125 49.078125 51.53125 44.71875 
Q 48 40.375 41.703125 38.8125 
Q 48.828125 37.15625 52.796875 32.3125 
Q 56.78125 27.484375 56.78125 20.515625 
Q 56.78125 9.90625 50.3125 4.234375 
Q 43.84375 -1.421875 31.78125 -1.421875 
Q 19.734375 -1.421875 13.25 4.234375 
Q 6.78125 9.90625 6.78125 20.515625 
Q 6.78125 27.484375 10.78125 32.3125 
Q 14.796875 37.15625 21.921875 38.8125 
z
M 18.3125 54.390625 
Q 18.3125 48.734375 21.84375 45.5625 
Q 25.390625 42.390625 31.78125 42.390625 
Q 38.140625 42.390625 41.71875 45.5625 
Q 45.3125 48.734375 45.3125 54.390625 
Q 45.3125 60.0625 41.71875 63.234375 
Q 38.140625 66.40625 31.78125 66.40625 
Q 25.390625 66.40625 21.84375 63.234375 
Q 18.3125 60.0625 18.3125 54.390625 
z
" id="DejaVuSans-56"/>
     </defs>
     <g transform="translate(570.2 262.248437)scale(0.1 -0.1)">
      <use xlink:href="#DejaVuSans-80"/>
      <use x="60.287109" xlink:href="#DejaVuSans-114"/>
      <use x="101.369141" xlink:href="#DejaVuSans-101"/>
      <use x="162.892578" xlink:href="#DejaVuSans-100"/>
      <use x="226.369141" xlink:href="#DejaVuSans-32"/>
      <use x="258.15625" xlink:href="#DejaVuSans-76"/>
      <use x="313.869141" xlink:href="#DejaVuSans-97"/>
      <use x="375.148438" xlink:href="#DejaVuSans-121"/>
      <use x="434.328125" xlink:href="#DejaVuSans-101"/>
      <use x="495.851562" xlink:href="#DejaVuSans-114"/>
      <use x="536.964844" xlink:href="#DejaVuSans-32"/>
      <use x="568.751953" xlink:href="#DejaVuSans-56"/>
     </g>
    </g>
    <g id="line2d_70">
     <path d="M 542.2 273.426562 
L 562.2 273.426562 
" style="fill:none;stroke:#ff1300;stroke-linecap:square;stroke-opacity:0.7;stroke-width:1.5;"/>
    </g>
    <g id="line2d_71"/>
    <g id="text_35">
     <!-- Test Layer 8 -->
     <g transform="translate(570.2 276.926562)scale(0.1 -0.1)">
      <use xlink:href="#DejaVuSans-84"/>
      <use x="60.818359" xlink:href="#DejaVuSans-101"/>
      <use x="122.341797" xlink:href="#DejaVuSans-115"/>
      <use x="174.441406" xlink:href="#DejaVuSans-116"/>
      <use x="213.650391" xlink:href="#DejaVuSans-32"/>
      <use x="245.4375" xlink:href="#DejaVuSans-76"/>
      <use x="301.150391" xlink:href="#DejaVuSans-97"/>
      <use x="362.429688" xlink:href="#DejaVuSans-121"/>
      <use x="421.609375" xlink:href="#DejaVuSans-101"/>
      <use x="483.132812" xlink:href="#DejaVuSans-114"/>
      <use x="524.246094" xlink:href="#DejaVuSans-32"/>
      <use x="556.033203" xlink:href="#DejaVuSans-56"/>
     </g>
    </g>
    <g id="line2d_72">
     <path d="M 542.2 288.104687 
L 562.2 288.104687 
" style="fill:none;stroke:#800000;stroke-dasharray:9.6,2.4,1.5,2.4;stroke-dashoffset:0;stroke-opacity:0.7;stroke-width:1.5;"/>
    </g>
    <g id="line2d_73"/>
    <g id="text_36">
     <!-- Pred Layer 9 -->
     <defs>
      <path d="M 10.984375 1.515625 
L 10.984375 10.5 
Q 14.703125 8.734375 18.5 7.8125 
Q 22.3125 6.890625 25.984375 6.890625 
Q 35.75 6.890625 40.890625 13.453125 
Q 46.046875 20.015625 46.78125 33.40625 
Q 43.953125 29.203125 39.59375 26.953125 
Q 35.25 24.703125 29.984375 24.703125 
Q 19.046875 24.703125 12.671875 31.3125 
Q 6.296875 37.9375 6.296875 49.421875 
Q 6.296875 60.640625 12.9375 67.421875 
Q 19.578125 74.21875 30.609375 74.21875 
Q 43.265625 74.21875 49.921875 64.515625 
Q 56.59375 54.828125 56.59375 36.375 
Q 56.59375 19.140625 48.40625 8.859375 
Q 40.234375 -1.421875 26.421875 -1.421875 
Q 22.703125 -1.421875 18.890625 -0.6875 
Q 15.09375 0.046875 10.984375 1.515625 
z
M 30.609375 32.421875 
Q 37.25 32.421875 41.125 36.953125 
Q 45.015625 41.5 45.015625 49.421875 
Q 45.015625 57.28125 41.125 61.84375 
Q 37.25 66.40625 30.609375 66.40625 
Q 23.96875 66.40625 20.09375 61.84375 
Q 16.21875 57.28125 16.21875 49.421875 
Q 16.21875 41.5 20.09375 36.953125 
Q 23.96875 32.421875 30.609375 32.421875 
z
" id="DejaVuSans-57"/>
     </defs>
     <g transform="translate(570.2 291.604687)scale(0.1 -0.1)">
      <use xlink:href="#DejaVuSans-80"/>
      <use x="60.287109" xlink:href="#DejaVuSans-114"/>
      <use x="101.369141" xlink:href="#DejaVuSans-101"/>
      <use x="162.892578" xlink:href="#DejaVuSans-100"/>
      <use x="226.369141" xlink:href="#DejaVuSans-32"/>
      <use x="258.15625" xlink:href="#DejaVuSans-76"/>
      <use x="313.869141" xlink:href="#DejaVuSans-97"/>
      <use x="375.148438" xlink:href="#DejaVuSans-121"/>
      <use x="434.328125" xlink:href="#DejaVuSans-101"/>
      <use x="495.851562" xlink:href="#DejaVuSans-114"/>
      <use x="536.964844" xlink:href="#DejaVuSans-32"/>
      <use x="568.751953" xlink:href="#DejaVuSans-57"/>
     </g>
    </g>
    <g id="line2d_74">
     <path d="M 542.2 302.782812 
L 562.2 302.782812 
" style="fill:none;stroke:#800000;stroke-linecap:square;stroke-opacity:0.7;stroke-width:1.5;"/>
    </g>
    <g id="line2d_75"/>
    <g id="text_37">
     <!-- Test Layer 9 -->
     <g transform="translate(570.2 306.282812)scale(0.1 -0.1)">
      <use xlink:href="#DejaVuSans-84"/>
      <use x="60.818359" xlink:href="#DejaVuSans-101"/>
      <use x="122.341797" xlink:href="#DejaVuSans-115"/>
      <use x="174.441406" xlink:href="#DejaVuSans-116"/>
      <use x="213.650391" xlink:href="#DejaVuSans-32"/>
      <use x="245.4375" xlink:href="#DejaVuSans-76"/>
      <use x="301.150391" xlink:href="#DejaVuSans-97"/>
      <use x="362.429688" xlink:href="#DejaVuSans-121"/>
      <use x="421.609375" xlink:href="#DejaVuSans-101"/>
      <use x="483.132812" xlink:href="#DejaVuSans-114"/>
      <use x="524.246094" xlink:href="#DejaVuSans-32"/>
      <use x="556.033203" xlink:href="#DejaVuSans-57"/>
     </g>
    </g>
   </g>
  </g>
 </g>
 <defs>
  <clipPath id="pb7c980ad2f">
   <rect height="379.4" width="488.65" x="44.55" y="10.8"/>
  </clipPath>
 </defs>
</svg>
